{
  "asset": {
    "copyright": "",
    "generator": "SharpGLTF 1.0.0-alpha0015",
    "version": "2.0"
  },
  "accessors": [
    {
      "name": "POSITION",
      "bufferView": 0,
      "byteOffset": 852768,
      "componentType": 5126,
      "count": 300,
      "max": [
        247.5626983642578,
        -56,
        409.4764404296875
      ],
      "min": [
        -1716.15087890625,
        -56,
        -410.4893493652344
      ],
      "type": "VEC3"
    },
    {
      "name": "NORMAL",
      "bufferView": 0,
      "byteOffset": 852780,
      "componentType": 5126,
      "count": 300,
      "max": [
        5.531054318230631e-19,
        1,
        8.726922222045933e-17
      ],
      "min": [
        -4.306833980648811e-17,
        1,
        4.3499995737342784e-17
      ],
      "type": "VEC3"
    },
    {
      "name": "_BATCHID",
      "bufferView": 0,
      "byteOffset": 852792,
      "componentType": 5126,
      "count": 300,
      "max": [
        49
      ],
      "min": [
        0
      ],
      "type": "SCALAR"
    },
    {
      "bufferView": 1,
      "byteOffset": 60912,
      "componentType": 5123,
      "count": 300,
      "type": "SCALAR"
    },
    {
      "name": "POSITION",
      "bufferView": 0,
      "byteOffset": 861168,
      "componentType": 5126,
      "count": 216,
      "max": [
        247.5626983642578,
        -54,
        409.4764404296875
      ],
      "min": [
        -1716.15087890625,
        -54,
        -402.3847351074219
      ],
      "type": "VEC3"
    },
    {
      "name": "NORMAL",
      "bufferView": 0,
      "byteOffset": 861180,
      "componentType": 5126,
      "count": 216,
      "max": [
        5.531054318230631e-19,
        1,
        8.700697949650042e-17
      ],
      "min": [
        2.668345586355582e-19,
        1,
        4.3499995737342784e-17
      ],
      "type": "VEC3"
    },
    {
      "name": "_BATCHID",
      "bufferView": 0,
      "byteOffset": 861192,
      "componentType": 5126,
      "count": 216,
      "max": [
        49
      ],
      "min": [
        0
      ],
      "type": "SCALAR"
    },
    {
      "bufferView": 1,
      "byteOffset": 61512,
      "componentType": 5123,
      "count": 216,
      "type": "SCALAR"
    },
    {
      "name": "POSITION",
      "bufferView": 0,
      "byteOffset": 820512,
      "componentType": 5126,
      "count": 1152,
      "max": [
        247.5626983642578,
        54,
        409.4764404296875
      ],
      "min": [
        -1715.114013671875,
        34,
        -410.4893493652344
      ],
      "type": "VEC3"
    },
    {
      "name": "NORMAL",
      "bufferView": 0,
      "byteOffset": 820524,
      "componentType": 5126,
      "count": 1152,
      "max": [
        0.9999814629554749,
        0,
        0.9999812245368958
      ],
      "min": [
        -0.9999814629554749,
        0,
        -0.9999812245368958
      ],
      "type": "VEC3"
    },
    {
      "name": "_BATCHID",
      "bufferView": 0,
      "byteOffset": 820536,
      "componentType": 5126,
      "count": 1152,
      "max": [
        49
      ],
      "min": [
        0
      ],
      "type": "SCALAR"
    },
    {
      "bufferView": 1,
      "byteOffset": 58608,
      "componentType": 5123,
      "count": 1152,
      "type": "SCALAR"
    },
    {
      "name": "POSITION",
      "bufferView": 0,
      "byteOffset": 521472,
      "componentType": 5126,
      "count": 5064,
      "max": [
        247.5626983642578,
        52,
        409.4764404296875
      ],
      "min": [
        -1716.15087890625,
        -56,
        -410.4893493652344
      ],
      "type": "VEC3"
    },
    {
      "name": "NORMAL",
      "bufferView": 0,
      "byteOffset": 521484,
      "componentType": 5126,
      "count": 5064,
      "max": [
        0.9999814629554749,
        0,
        0.9999812245368958
      ],
      "min": [
        -0.9999814629554749,
        0,
        -0.9999812245368958
      ],
      "type": "VEC3"
    },
    {
      "name": "_BATCHID",
      "bufferView": 0,
      "byteOffset": 521496,
      "componentType": 5126,
      "count": 5064,
      "max": [
        49
      ],
      "min": [
        0
      ],
      "type": "SCALAR"
    },
    {
      "bufferView": 1,
      "byteOffset": 37248,
      "componentType": 5123,
      "count": 5064,
      "type": "SCALAR"
    },
    {
      "name": "POSITION",
      "bufferView": 0,
      "byteOffset": 776832,
      "componentType": 5126,
      "count": 1560,
      "max": [
        247.5626983642578,
        42,
        409.4764404296875
      ],
      "min": [
        -1716.15087890625,
        -52,
        -410.4893493652344
      ],
      "type": "VEC3"
    },
    {
      "name": "NORMAL",
      "bufferView": 0,
      "byteOffset": 776844,
      "componentType": 5126,
      "count": 1560,
      "max": [
        0.9999814629554749,
        0,
        0.9999812245368958
      ],
      "min": [
        -0.9999814629554749,
        0,
        -0.9999812245368958
      ],
      "type": "VEC3"
    },
    {
      "name": "_BATCHID",
      "bufferView": 0,
      "byteOffset": 776856,
      "componentType": 5126,
      "count": 1560,
      "max": [
        49
      ],
      "min": [
        0
      ],
      "type": "SCALAR"
    },
    {
      "bufferView": 1,
      "byteOffset": 55488,
      "componentType": 5123,
      "count": 1560,
      "type": "SCALAR"
    },
    {
      "name": "POSITION",
      "bufferView": 0,
      "componentType": 5126,
      "count": 6840,
      "max": [
        247.5626983642578,
        27,
        409.4764404296875
      ],
      "min": [
        -1716.15087890625,
        -53,
        -410.4893493652344
      ],
      "type": "VEC3"
    },
    {
      "name": "NORMAL",
      "bufferView": 0,
      "byteOffset": 12,
      "componentType": 5126,
      "count": 6840,
      "max": [
        0.9999814629554749,
        0,
        0.9999812245368958
      ],
      "min": [
        -0.9999814629554749,
        0,
        -0.9999812245368958
      ],
      "type": "VEC3"
    },
    {
      "name": "_BATCHID",
      "bufferView": 0,
      "byteOffset": 24,
      "componentType": 5126,
      "count": 6840,
      "max": [
        49
      ],
      "min": [
        0
      ],
      "type": "SCALAR"
    },
    {
      "bufferView": 1,
      "componentType": 5123,
      "count": 6840,
      "type": "SCALAR"
    },
    {
      "name": "POSITION",
      "bufferView": 0,
      "byteOffset": 363552,
      "componentType": 5126,
      "count": 5640,
      "max": [
        247.5626983642578,
        16,
        409.4764404296875
      ],
      "min": [
        -1716.15087890625,
        -56,
        -410.4893493652344
      ],
      "type": "VEC3"
    },
    {
      "name": "NORMAL",
      "bufferView": 0,
      "byteOffset": 363564,
      "componentType": 5126,
      "count": 5640,
      "max": [
        0.9999814629554749,
        0,
        0.9999812245368958
      ],
      "min": [
        -0.9999814629554749,
        0,
        -0.9999812245368958
      ],
      "type": "VEC3"
    },
    {
      "name": "_BATCHID",
      "bufferView": 0,
      "byteOffset": 363576,
      "componentType": 5126,
      "count": 5640,
      "max": [
        49
      ],
      "min": [
        0
      ],
      "type": "SCALAR"
    },
    {
      "bufferView": 1,
      "byteOffset": 25968,
      "componentType": 5123,
      "count": 5640,
      "type": "SCALAR"
    },
    {
      "name": "POSITION",
      "bufferView": 0,
      "byteOffset": 191520,
      "componentType": 5126,
      "count": 6144,
      "max": [
        247.5626983642578,
        28,
        409.4764404296875
      ],
      "min": [
        -1716.15087890625,
        -56,
        -410.4893493652344
      ],
      "type": "VEC3"
    },
    {
      "name": "NORMAL",
      "bufferView": 0,
      "byteOffset": 191532,
      "componentType": 5126,
      "count": 6144,
      "max": [
        0.9999814629554749,
        0,
        0.9999812245368958
      ],
      "min": [
        -0.9999814629554749,
        0,
        -0.9999812245368958
      ],
      "type": "VEC3"
    },
    {
      "name": "_BATCHID",
      "bufferView": 0,
      "byteOffset": 191544,
      "componentType": 5126,
      "count": 6144,
      "max": [
        49
      ],
      "min": [
        0
      ],
      "type": "SCALAR"
    },
    {
      "bufferView": 1,
      "byteOffset": 13680,
      "componentType": 5123,
      "count": 6144,
      "type": "SCALAR"
    },
    {
      "name": "POSITION",
      "bufferView": 0,
      "byteOffset": 867216,
      "componentType": 5126,
      "count": 84,
      "max": [
        243.573974609375,
        -54,
        87.24371337890625
      ],
      "min": [
        -1063.1329345703125,
        -54,
        -410.4893493652344
      ],
      "type": "VEC3"
    },
    {
      "name": "NORMAL",
      "bufferView": 0,
      "byteOffset": 867228,
      "componentType": 5126,
      "count": 84,
      "max": [
        5.44279724879852e-19,
        1,
        8.726922222045933e-17
      ],
      "min": [
        -4.306833980648811e-17,
        1,
        4.3499995737342784e-17
      ],
      "type": "VEC3"
    },
    {
      "name": "_BATCHID",
      "bufferView": 0,
      "byteOffset": 867240,
      "componentType": 5126,
      "count": 84,
      "max": [
        30
      ],
      "min": [
        1
      ],
      "type": "SCALAR"
    },
    {
      "bufferView": 1,
      "byteOffset": 61944,
      "componentType": 5123,
      "count": 84,
      "type": "SCALAR"
    },
    {
      "name": "POSITION",
      "bufferView": 0,
      "byteOffset": 663264,
      "componentType": 5126,
      "count": 4056,
      "max": [
        247.5626983642578,
        34,
        409.4764404296875
      ],
      "min": [
        -1716.15087890625,
        -56,
        -410.4893493652344
      ],
      "type": "VEC3"
    },
    {
      "name": "NORMAL",
      "bufferView": 0,
      "byteOffset": 663276,
      "componentType": 5126,
      "count": 4056,
      "max": [
        0.9999814629554749,
        0,
        0.9999812245368958
      ],
      "min": [
        -0.9999814629554749,
        0,
        -0.9999812245368958
      ],
      "type": "VEC3"
    },
    {
      "name": "_BATCHID",
      "bufferView": 0,
      "byteOffset": 663288,
      "componentType": 5126,
      "count": 4056,
      "max": [
        49
      ],
      "min": [
        1
      ],
      "type": "SCALAR"
    },
    {
      "bufferView": 1,
      "byteOffset": 47376,
      "componentType": 5123,
      "count": 4056,
      "type": "SCALAR"
    }
  ],
  "bufferViews": [
    {
      "buffer": 0,
      "byteLength": 869568,
      "byteStride": 28,
      "target": 34962,
      "byteOffset": 0
    },
    {
      "buffer": 0,
      "byteLength": 62112,
      "byteOffset": 869568,
      "target": 34963
    }
  ],
  "buffers": [
    {
      "uri": "1_data.bin",
      "byteLength": 931680
    }
  ],
  "materials": [
    {
      "alphaCutoff": 0,
      "alphaMode": "BLEND",
      "doubleSided": true,
      "pbrMetallicRoughness": {
        "baseColorFactor": [
          1,
          1,
          1,
          0
        ]
      }
    },
    {
      "alphaCutoff": 0,
      "alphaMode": "BLEND",
      "doubleSided": true,
      "pbrMetallicRoughness": {
        "baseColorFactor": [
          0.09411765,
          0.62352943,
          0.28235295,
          0.54901963
        ]
      }
    },
    {
      "alphaCutoff": 0,
      "alphaMode": "BLEND",
      "doubleSided": true,
      "pbrMetallicRoughness": {
        "baseColorFactor": [
          0.75686276,
          0.7647059,
          0.7764706,
          1
        ]
      }
    },
    {
      "alphaCutoff": 0,
      "alphaMode": "BLEND",
      "doubleSided": true,
      "pbrMetallicRoughness": {
        "baseColorFactor": [
          0.09411765,
          0.62352943,
          0.28235295,
          1
        ]
      }
    },
    {
      "alphaCutoff": 0,
      "alphaMode": "BLEND",
      "doubleSided": true,
      "pbrMetallicRoughness": {
        "baseColorFactor": [
          0.59607846,
          0.3137255,
          0.27058825,
          1
        ]
      }
    },
    {
      "alphaCutoff": 0,
      "alphaMode": "BLEND",
      "doubleSided": true,
      "pbrMetallicRoughness": {
        "baseColorFactor": [
          1,
          0.9411765,
          0,
          1
        ]
      }
    },
    {
      "alphaCutoff": 0,
      "alphaMode": "BLEND",
      "doubleSided": true,
      "pbrMetallicRoughness": {
        "baseColorFactor": [
          1,
          0.78431374,
          0,
          1
        ]
      }
    },
    {
      "alphaCutoff": 0,
      "alphaMode": "BLEND",
      "doubleSided": true,
      "pbrMetallicRoughness": {
        "baseColorFactor": [
          1,
          0.8627451,
          0,
          1
        ]
      }
    },
    {
      "alphaCutoff": 0,
      "alphaMode": "BLEND",
      "doubleSided": true,
      "pbrMetallicRoughness": {
        "baseColorFactor": [
          0.59607846,
          0.3137255,
          0.27058825,
          0.54901963
        ]
      }
    },
    {
      "alphaCutoff": 0,
      "alphaMode": "BLEND",
      "doubleSided": true,
      "pbrMetallicRoughness": {
        "baseColorFactor": [
          0.7137255,
          0.81960785,
          0.4117647,
          1
        ]
      }
    }
  ],
  "meshes": [
    {
      "name": "mesh",
      "primitives": [
        {
          "attributes": {
            "POSITION": 0,
            "NORMAL": 1,
            "_BATCHID": 2
          },
          "indices": 3,
          "material": 0
        },
        {
          "attributes": {
            "POSITION": 4,
            "NORMAL": 5,
            "_BATCHID": 6
          },
          "indices": 7,
          "material": 1
        },
        {
          "attributes": {
            "POSITION": 8,
            "NORMAL": 9,
            "_BATCHID": 10
          },
          "indices": 11,
          "material": 2
        },
        {
          "attributes": {
            "POSITION": 12,
            "NORMAL": 13,
            "_BATCHID": 14
          },
          "indices": 15,
          "material": 3
        },
        {
          "attributes": {
            "POSITION": 16,
            "NORMAL": 17,
            "_BATCHID": 18
          },
          "indices": 19,
          "material": 4
        },
        {
          "attributes": {
            "POSITION": 20,
            "NORMAL": 21,
            "_BATCHID": 22
          },
          "indices": 23,
          "material": 5
        },
        {
          "attributes": {
            "POSITION": 24,
            "NORMAL": 25,
            "_BATCHID": 26
          },
          "indices": 27,
          "material": 6
        },
        {
          "attributes": {
            "POSITION": 28,
            "NORMAL": 29,
            "_BATCHID": 30
          },
          "indices": 31,
          "material": 7
        },
        {
          "attributes": {
            "POSITION": 32,
            "NORMAL": 33,
            "_BATCHID": 34
          },
          "indices": 35,
          "material": 8
        },
        {
          "attributes": {
            "POSITION": 36,
            "NORMAL": 37,
            "_BATCHID": 38
          },
          "indices": 39,
          "material": 9
        }
      ]
    }
  ],
  "nodes": [
    {
      "mesh": 0
    }
  ],
  "scene": 0,
  "scenes": [
    {
      "nodes": [
        0
      ]
    }
  ]
}