{
  "asset": {
    "copyright": "",
    "generator": "SharpGLTF 1.0.0-alpha0015",
    "version": "2.0"
  },
  "accessors": [
    {
      "name": "POSITION",
      "bufferView": 0,
      "byteOffset": 288288,
      "componentType": 5126,
      "count": 114,
      "max": [
        1724.4481201171875,
        -56,
        1710.6265869140625
      ],
      "min": [
        1228.2999267578125,
        -56,
        564.5321655273438
      ],
      "type": "VEC3"
    },
    {
      "name": "NORMAL",
      "bufferView": 0,
      "byteOffset": 288300,
      "componentType": 5126,
      "count": 114,
      "max": [
        5.213224126529967e-19,
        1,
        8.727613083293537e-17
      ],
      "min": [
        -4.3098366462723787e-17,
        1,
        4.350522351881412e-17
      ],
      "type": "VEC3"
    },
    {
      "name": "_BATCHID",
      "bufferView": 0,
      "byteOffset": 288312,
      "componentType": 5126,
      "count": 114,
      "max": [
        18
      ],
      "min": [
        0
      ],
      "type": "SCALAR"
    },
    {
      "bufferView": 1,
      "byteOffset": 20592,
      "componentType": 5123,
      "count": 114,
      "type": "SCALAR"
    },
    {
      "name": "POSITION",
      "bufferView": 0,
      "byteOffset": 291480,
      "componentType": 5126,
      "count": 90,
      "max": [
        1723.4810791015625,
        -54,
        1546.0235595703125
      ],
      "min": [
        1228.2999267578125,
        -54,
        564.5321655273438
      ],
      "type": "VEC3"
    },
    {
      "name": "NORMAL",
      "bufferView": 0,
      "byteOffset": 291492,
      "componentType": 5126,
      "count": 90,
      "max": [
        5.213224126529967e-19,
        1,
        8.727613083293537e-17
      ],
      "min": [
        -4.3098366462723787e-17,
        1,
        4.350522351881412e-17
      ],
      "type": "VEC3"
    },
    {
      "name": "_BATCHID",
      "bufferView": 0,
      "byteOffset": 291504,
      "componentType": 5126,
      "count": 90,
      "max": [
        16
      ],
      "min": [
        0
      ],
      "type": "SCALAR"
    },
    {
      "bufferView": 1,
      "byteOffset": 20820,
      "componentType": 5123,
      "count": 90,
      "type": "SCALAR"
    },
    {
      "name": "POSITION",
      "bufferView": 0,
      "byteOffset": 264768,
      "componentType": 5126,
      "count": 456,
      "max": [
        1724.4481201171875,
        45,
        1710.6265869140625
      ],
      "min": [
        1228.2999267578125,
        34,
        564.5321655273438
      ],
      "type": "VEC3"
    },
    {
      "name": "NORMAL",
      "bufferView": 0,
      "byteOffset": 264780,
      "componentType": 5126,
      "count": 456,
      "max": [
        0.9999825358390808,
        0,
        0.9999823570251465
      ],
      "min": [
        -0.9999825358390808,
        0,
        -0.9999823570251465
      ],
      "type": "VEC3"
    },
    {
      "name": "_BATCHID",
      "bufferView": 0,
      "byteOffset": 264792,
      "componentType": 5126,
      "count": 456,
      "max": [
        18
      ],
      "min": [
        0
      ],
      "type": "SCALAR"
    },
    {
      "bufferView": 1,
      "byteOffset": 18912,
      "componentType": 5123,
      "count": 456,
      "type": "SCALAR"
    },
    {
      "name": "POSITION",
      "bufferView": 0,
      "byteOffset": 208992,
      "componentType": 5126,
      "count": 1176,
      "max": [
        1724.4481201171875,
        44,
        1710.6265869140625
      ],
      "min": [
        1228.2999267578125,
        -56,
        564.5321655273438
      ],
      "type": "VEC3"
    },
    {
      "name": "NORMAL",
      "bufferView": 0,
      "byteOffset": 209004,
      "componentType": 5126,
      "count": 1176,
      "max": [
        0.9999825954437256,
        0,
        0.9999823570251465
      ],
      "min": [
        -0.9999825954437256,
        0,
        -0.9999823570251465
      ],
      "type": "VEC3"
    },
    {
      "name": "_BATCHID",
      "bufferView": 0,
      "byteOffset": 209016,
      "componentType": 5126,
      "count": 1176,
      "max": [
        18
      ],
      "min": [
        0
      ],
      "type": "SCALAR"
    },
    {
      "bufferView": 1,
      "byteOffset": 14928,
      "componentType": 5123,
      "count": 1176,
      "type": "SCALAR"
    },
    {
      "name": "POSITION",
      "bufferView": 0,
      "byteOffset": 159264,
      "componentType": 5126,
      "count": 1776,
      "max": [
        1724.4481201171875,
        29,
        1710.6265869140625
      ],
      "min": [
        1228.2999267578125,
        -53,
        564.5321655273438
      ],
      "type": "VEC3"
    },
    {
      "name": "NORMAL",
      "bufferView": 0,
      "byteOffset": 159276,
      "componentType": 5126,
      "count": 1776,
      "max": [
        0.9999825358390808,
        0,
        0.9999823570251465
      ],
      "min": [
        -0.9999825358390808,
        0,
        -0.9999823570251465
      ],
      "type": "VEC3"
    },
    {
      "name": "_BATCHID",
      "bufferView": 0,
      "byteOffset": 159288,
      "componentType": 5126,
      "count": 1776,
      "max": [
        18
      ],
      "min": [
        0
      ],
      "type": "SCALAR"
    },
    {
      "bufferView": 1,
      "byteOffset": 11376,
      "componentType": 5123,
      "count": 1776,
      "type": "SCALAR"
    },
    {
      "name": "POSITION",
      "bufferView": 0,
      "byteOffset": 241920,
      "componentType": 5126,
      "count": 816,
      "max": [
        1724.4481201171875,
        24,
        1710.6265869140625
      ],
      "min": [
        1229.277099609375,
        -56,
        726.2311401367188
      ],
      "type": "VEC3"
    },
    {
      "name": "NORMAL",
      "bufferView": 0,
      "byteOffset": 241932,
      "componentType": 5126,
      "count": 816,
      "max": [
        0.9999825358390808,
        0,
        0.9999822974205017
      ],
      "min": [
        -0.9999825358390808,
        0,
        -0.9999822974205017
      ],
      "type": "VEC3"
    },
    {
      "name": "_BATCHID",
      "bufferView": 0,
      "byteOffset": 241944,
      "componentType": 5126,
      "count": 816,
      "max": [
        18
      ],
      "min": [
        0
      ],
      "type": "SCALAR"
    },
    {
      "bufferView": 1,
      "byteOffset": 17280,
      "componentType": 5123,
      "count": 816,
      "type": "SCALAR"
    },
    {
      "name": "POSITION",
      "bufferView": 0,
      "componentType": 5126,
      "count": 3408,
      "max": [
        1724.4481201171875,
        29,
        1710.6265869140625
      ],
      "min": [
        1228.2999267578125,
        -56,
        564.5321655273438
      ],
      "type": "VEC3"
    },
    {
      "name": "NORMAL",
      "bufferView": 0,
      "byteOffset": 12,
      "componentType": 5126,
      "count": 3408,
      "max": [
        0.9999825954437256,
        0,
        0.9999823570251465
      ],
      "min": [
        -0.9999825954437256,
        0,
        -0.9999823570251465
      ],
      "type": "VEC3"
    },
    {
      "name": "_BATCHID",
      "bufferView": 0,
      "byteOffset": 24,
      "componentType": 5126,
      "count": 3408,
      "max": [
        18
      ],
      "min": [
        0
      ],
      "type": "SCALAR"
    },
    {
      "bufferView": 1,
      "componentType": 5123,
      "count": 3408,
      "type": "SCALAR"
    },
    {
      "name": "POSITION",
      "bufferView": 0,
      "byteOffset": 95424,
      "componentType": 5126,
      "count": 2280,
      "max": [
        1724.4481201171875,
        21,
        1710.6265869140625
      ],
      "min": [
        1228.2999267578125,
        -56,
        564.5321655273438
      ],
      "type": "VEC3"
    },
    {
      "name": "NORMAL",
      "bufferView": 0,
      "byteOffset": 95436,
      "componentType": 5126,
      "count": 2280,
      "max": [
        0.9999825954437256,
        0,
        0.9999823570251465
      ],
      "min": [
        -0.9999825954437256,
        0,
        -0.9999823570251465
      ],
      "type": "VEC3"
    },
    {
      "name": "_BATCHID",
      "bufferView": 0,
      "byteOffset": 95448,
      "componentType": 5126,
      "count": 2280,
      "max": [
        18
      ],
      "min": [
        0
      ],
      "type": "SCALAR"
    },
    {
      "bufferView": 1,
      "byteOffset": 6816,
      "componentType": 5123,
      "count": 2280,
      "type": "SCALAR"
    },
    {
      "name": "POSITION",
      "bufferView": 0,
      "byteOffset": 277536,
      "componentType": 5126,
      "count": 384,
      "max": [
        1724.4481201171875,
        39,
        1710.6265869140625
      ],
      "min": [
        1228.2999267578125,
        25,
        564.5321655273438
      ],
      "type": "VEC3"
    },
    {
      "name": "NORMAL",
      "bufferView": 0,
      "byteOffset": 277548,
      "componentType": 5126,
      "count": 384,
      "max": [
        0.9999825358390808,
        0,
        0.9999823570251465
      ],
      "min": [
        -0.9999825358390808,
        0,
        -0.9999823570251465
      ],
      "type": "VEC3"
    },
    {
      "name": "_BATCHID",
      "bufferView": 0,
      "byteOffset": 277560,
      "componentType": 5126,
      "count": 384,
      "max": [
        18
      ],
      "min": [
        1
      ],
      "type": "SCALAR"
    },
    {
      "bufferView": 1,
      "byteOffset": 19824,
      "componentType": 5123,
      "count": 384,
      "type": "SCALAR"
    },
    {
      "name": "POSITION",
      "bufferView": 0,
      "byteOffset": 294000,
      "componentType": 5126,
      "count": 24,
      "max": [
        1724.4481201171875,
        -54,
        1710.6265869140625
      ],
      "min": [
        1233.1854248046875,
        -54,
        1382.7242431640625
      ],
      "type": "VEC3"
    },
    {
      "name": "NORMAL",
      "bufferView": 0,
      "byteOffset": 294012,
      "componentType": 5126,
      "count": 24,
      "max": [
        5.213134687626235e-19,
        1,
        8.702096877501991e-17
      ],
      "min": [
        2.6064745444881467e-19,
        1,
        4.35096042673382e-17
      ],
      "type": "VEC3"
    },
    {
      "name": "_BATCHID",
      "bufferView": 0,
      "byteOffset": 294024,
      "componentType": 5126,
      "count": 24,
      "max": [
        18
      ],
      "min": [
        5
      ],
      "type": "SCALAR"
    },
    {
      "bufferView": 1,
      "byteOffset": 21000,
      "componentType": 5123,
      "count": 24,
      "type": "SCALAR"
    }
  ],
  "bufferViews": [
    {
      "buffer": 0,
      "byteLength": 294672,
      "byteStride": 28,
      "target": 34962,
      "byteOffset": 0
    },
    {
      "buffer": 0,
      "byteLength": 21048,
      "byteOffset": 294672,
      "target": 34963
    }
  ],
  "buffers": [
    {
      "uri": "12_data.bin",
      "byteLength": 315720
    }
  ],
  "materials": [
    {
      "alphaCutoff": 0,
      "alphaMode": "BLEND",
      "doubleSided": true,
      "pbrMetallicRoughness": {
        "baseColorFactor": [
          1,
          1,
          1,
          0
        ]
      }
    },
    {
      "alphaCutoff": 0,
      "alphaMode": "BLEND",
      "doubleSided": true,
      "pbrMetallicRoughness": {
        "baseColorFactor": [
          0.09411765,
          0.62352943,
          0.28235295,
          0.54901963
        ]
      }
    },
    {
      "alphaCutoff": 0,
      "alphaMode": "BLEND",
      "doubleSided": true,
      "pbrMetallicRoughness": {
        "baseColorFactor": [
          0.75686276,
          0.7647059,
          0.7764706,
          1
        ]
      }
    },
    {
      "alphaCutoff": 0,
      "alphaMode": "BLEND",
      "doubleSided": true,
      "pbrMetallicRoughness": {
        "baseColorFactor": [
          0.09411765,
          0.62352943,
          0.28235295,
          1
        ]
      }
    },
    {
      "alphaCutoff": 0,
      "alphaMode": "BLEND",
      "doubleSided": true,
      "pbrMetallicRoughness": {
        "baseColorFactor": [
          1,
          0.9411765,
          0,
          1
        ]
      }
    },
    {
      "alphaCutoff": 0,
      "alphaMode": "BLEND",
      "doubleSided": true,
      "pbrMetallicRoughness": {
        "baseColorFactor": [
          0.7137255,
          0.81960785,
          0.4117647,
          1
        ]
      }
    },
    {
      "alphaCutoff": 0,
      "alphaMode": "BLEND",
      "doubleSided": true,
      "pbrMetallicRoughness": {
        "baseColorFactor": [
          1,
          0.8627451,
          0,
          1
        ]
      }
    },
    {
      "alphaCutoff": 0,
      "alphaMode": "BLEND",
      "doubleSided": true,
      "pbrMetallicRoughness": {
        "baseColorFactor": [
          1,
          0.78431374,
          0,
          1
        ]
      }
    },
    {
      "alphaCutoff": 0,
      "alphaMode": "BLEND",
      "doubleSided": true,
      "pbrMetallicRoughness": {
        "baseColorFactor": [
          0.59607846,
          0.3137255,
          0.27058825,
          1
        ]
      }
    },
    {
      "alphaCutoff": 0,
      "alphaMode": "BLEND",
      "doubleSided": true,
      "pbrMetallicRoughness": {
        "baseColorFactor": [
          0.59607846,
          0.3137255,
          0.27058825,
          0.54901963
        ]
      }
    }
  ],
  "meshes": [
    {
      "name": "mesh",
      "primitives": [
        {
          "attributes": {
            "POSITION": 0,
            "NORMAL": 1,
            "_BATCHID": 2
          },
          "indices": 3,
          "material": 0
        },
        {
          "attributes": {
            "POSITION": 4,
            "NORMAL": 5,
            "_BATCHID": 6
          },
          "indices": 7,
          "material": 1
        },
        {
          "attributes": {
            "POSITION": 8,
            "NORMAL": 9,
            "_BATCHID": 10
          },
          "indices": 11,
          "material": 2
        },
        {
          "attributes": {
            "POSITION": 12,
            "NORMAL": 13,
            "_BATCHID": 14
          },
          "indices": 15,
          "material": 3
        },
        {
          "attributes": {
            "POSITION": 16,
            "NORMAL": 17,
            "_BATCHID": 18
          },
          "indices": 19,
          "material": 4
        },
        {
          "attributes": {
            "POSITION": 20,
            "NORMAL": 21,
            "_BATCHID": 22
          },
          "indices": 23,
          "material": 5
        },
        {
          "attributes": {
            "POSITION": 24,
            "NORMAL": 25,
            "_BATCHID": 26
          },
          "indices": 27,
          "material": 6
        },
        {
          "attributes": {
            "POSITION": 28,
            "NORMAL": 29,
            "_BATCHID": 30
          },
          "indices": 31,
          "material": 7
        },
        {
          "attributes": {
            "POSITION": 32,
            "NORMAL": 33,
            "_BATCHID": 34
          },
          "indices": 35,
          "material": 8
        },
        {
          "attributes": {
            "POSITION": 36,
            "NORMAL": 37,
            "_BATCHID": 38
          },
          "indices": 39,
          "material": 9
        }
      ]
    }
  ],
  "nodes": [
    {
      "mesh": 0
    }
  ],
  "scene": 0,
  "scenes": [
    {
      "nodes": [
        0
      ]
    }
  ]
}