{
  "asset": {
    "copyright": "",
    "generator": "SharpGLTF 1.0.0-alpha0015",
    "version": "2.0"
  },
  "accessors": [
    {
      "name": "POSITION",
      "bufferView": 0,
      "byteOffset": 184128,
      "componentType": 5126,
      "count": 72,
      "max": [
        -730.8502807617188,
        -56,
        583.3515625
      ],
      "min": [
        -1712.0035400390625,
        -56,
        250.20614624023438
      ],
      "type": "VEC3"
    },
    {
      "name": "NORMAL",
      "bufferView": 0,
      "byteOffset": 184140,
      "componentType": 5126,
      "count": 72,
      "max": [
        5.531011925224238e-19,
        1,
        8.700701258372492e-17
      ],
      "min": [
        2.7212941928469254e-19,
        1,
        4.3504369868421964e-17
      ],
      "type": "VEC3"
    },
    {
      "name": "_BATCHID",
      "bufferView": 0,
      "byteOffset": 184152,
      "componentType": 5126,
      "count": 72,
      "max": [
        11
      ],
      "min": [
        0
      ],
      "type": "SCALAR"
    },
    {
      "bufferView": 1,
      "byteOffset": 13152,
      "componentType": 5123,
      "count": 72,
      "type": "SCALAR"
    },
    {
      "name": "POSITION",
      "bufferView": 0,
      "byteOffset": 186144,
      "componentType": 5126,
      "count": 72,
      "max": [
        -730.8502807617188,
        -54,
        583.3515625
      ],
      "min": [
        -1712.0035400390625,
        -54,
        250.20614624023438
      ],
      "type": "VEC3"
    },
    {
      "name": "NORMAL",
      "bufferView": 0,
      "byteOffset": 186156,
      "componentType": 5126,
      "count": 72,
      "max": [
        5.531011925224238e-19,
        1,
        8.700701258372492e-17
      ],
      "min": [
        2.7212941928469254e-19,
        1,
        4.3504369868421964e-17
      ],
      "type": "VEC3"
    },
    {
      "name": "_BATCHID",
      "bufferView": 0,
      "byteOffset": 186168,
      "componentType": 5126,
      "count": 72,
      "max": [
        11
      ],
      "min": [
        0
      ],
      "type": "SCALAR"
    },
    {
      "bufferView": 1,
      "byteOffset": 13296,
      "componentType": 5123,
      "count": 72,
      "type": "SCALAR"
    },
    {
      "name": "POSITION",
      "bufferView": 0,
      "byteOffset": 168000,
      "componentType": 5126,
      "count": 288,
      "max": [
        -730.8502807617188,
        38,
        583.3515625
      ],
      "min": [
        -1712.0035400390625,
        33,
        250.20614624023438
      ],
      "type": "VEC3"
    },
    {
      "name": "NORMAL",
      "bufferView": 0,
      "byteOffset": 168012,
      "componentType": 5126,
      "count": 288,
      "max": [
        0.9999806880950928,
        0,
        0.9999804496765137
      ],
      "min": [
        -0.9999806880950928,
        0,
        -0.9999804496765137
      ],
      "type": "VEC3"
    },
    {
      "name": "_BATCHID",
      "bufferView": 0,
      "byteOffset": 168024,
      "componentType": 5126,
      "count": 288,
      "max": [
        11
      ],
      "min": [
        0
      ],
      "type": "SCALAR"
    },
    {
      "bufferView": 1,
      "byteOffset": 12000,
      "componentType": 5123,
      "count": 288,
      "type": "SCALAR"
    },
    {
      "name": "POSITION",
      "bufferView": 0,
      "byteOffset": 141120,
      "componentType": 5126,
      "count": 960,
      "max": [
        -730.8502807617188,
        35,
        583.3515625
      ],
      "min": [
        -1712.0035400390625,
        -43,
        250.20614624023438
      ],
      "type": "VEC3"
    },
    {
      "name": "NORMAL",
      "bufferView": 0,
      "byteOffset": 141132,
      "componentType": 5126,
      "count": 960,
      "max": [
        0.9999806880950928,
        0,
        0.9999804496765137
      ],
      "min": [
        -0.9999806880950928,
        0,
        -0.9999804496765137
      ],
      "type": "VEC3"
    },
    {
      "name": "_BATCHID",
      "bufferView": 0,
      "byteOffset": 141144,
      "componentType": 5126,
      "count": 960,
      "max": [
        11
      ],
      "min": [
        0
      ],
      "type": "SCALAR"
    },
    {
      "bufferView": 1,
      "byteOffset": 10080,
      "componentType": 5123,
      "count": 960,
      "type": "SCALAR"
    },
    {
      "name": "POSITION",
      "bufferView": 0,
      "byteOffset": 176064,
      "componentType": 5126,
      "count": 288,
      "max": [
        -730.8502807617188,
        27,
        583.3515625
      ],
      "min": [
        -1712.0035400390625,
        -40,
        250.20614624023438
      ],
      "type": "VEC3"
    },
    {
      "name": "NORMAL",
      "bufferView": 0,
      "byteOffset": 176076,
      "componentType": 5126,
      "count": 288,
      "max": [
        0.9999806880950928,
        0,
        0.9999804496765137
      ],
      "min": [
        -0.9999806880950928,
        0,
        -0.9999804496765137
      ],
      "type": "VEC3"
    },
    {
      "name": "_BATCHID",
      "bufferView": 0,
      "byteOffset": 176088,
      "componentType": 5126,
      "count": 288,
      "max": [
        11
      ],
      "min": [
        0
      ],
      "type": "SCALAR"
    },
    {
      "bufferView": 1,
      "byteOffset": 12576,
      "componentType": 5123,
      "count": 288,
      "type": "SCALAR"
    },
    {
      "name": "POSITION",
      "bufferView": 0,
      "componentType": 5126,
      "count": 1632,
      "max": [
        -730.8502807617188,
        26,
        583.3515625
      ],
      "min": [
        -1712.0035400390625,
        -56,
        250.20614624023438
      ],
      "type": "VEC3"
    },
    {
      "name": "NORMAL",
      "bufferView": 0,
      "byteOffset": 12,
      "componentType": 5126,
      "count": 1632,
      "max": [
        0.9999806880950928,
        0,
        0.9999804496765137
      ],
      "min": [
        -0.9999806880950928,
        0,
        -0.9999804496765137
      ],
      "type": "VEC3"
    },
    {
      "name": "_BATCHID",
      "bufferView": 0,
      "byteOffset": 24,
      "componentType": 5126,
      "count": 1632,
      "max": [
        11
      ],
      "min": [
        0
      ],
      "type": "SCALAR"
    },
    {
      "bufferView": 1,
      "componentType": 5123,
      "count": 1632,
      "type": "SCALAR"
    },
    {
      "name": "POSITION",
      "bufferView": 0,
      "byteOffset": 112224,
      "componentType": 5126,
      "count": 1032,
      "max": [
        -730.8502807617188,
        22,
        583.3515625
      ],
      "min": [
        -1712.0035400390625,
        -50,
        250.20614624023438
      ],
      "type": "VEC3"
    },
    {
      "name": "NORMAL",
      "bufferView": 0,
      "byteOffset": 112236,
      "componentType": 5126,
      "count": 1032,
      "max": [
        0.9999806880950928,
        0,
        0.9999804496765137
      ],
      "min": [
        -0.9999806880950928,
        0,
        -0.9999804496765137
      ],
      "type": "VEC3"
    },
    {
      "name": "_BATCHID",
      "bufferView": 0,
      "byteOffset": 112248,
      "componentType": 5126,
      "count": 1032,
      "max": [
        11
      ],
      "min": [
        0
      ],
      "type": "SCALAR"
    },
    {
      "bufferView": 1,
      "byteOffset": 8016,
      "componentType": 5123,
      "count": 1032,
      "type": "SCALAR"
    },
    {
      "name": "POSITION",
      "bufferView": 0,
      "byteOffset": 45696,
      "componentType": 5126,
      "count": 1200,
      "max": [
        -730.8502807617188,
        25,
        583.3515625
      ],
      "min": [
        -1712.0035400390625,
        -34,
        250.20614624023438
      ],
      "type": "VEC3"
    },
    {
      "name": "NORMAL",
      "bufferView": 0,
      "byteOffset": 45708,
      "componentType": 5126,
      "count": 1200,
      "max": [
        0.9999806880950928,
        0,
        0.9999804496765137
      ],
      "min": [
        -0.9999806880950928,
        0,
        -0.9999804496765137
      ],
      "type": "VEC3"
    },
    {
      "name": "_BATCHID",
      "bufferView": 0,
      "byteOffset": 45720,
      "componentType": 5126,
      "count": 1200,
      "max": [
        11
      ],
      "min": [
        0
      ],
      "type": "SCALAR"
    },
    {
      "bufferView": 1,
      "byteOffset": 3264,
      "componentType": 5123,
      "count": 1200,
      "type": "SCALAR"
    },
    {
      "name": "POSITION",
      "bufferView": 0,
      "byteOffset": 79296,
      "componentType": 5126,
      "count": 1176,
      "max": [
        -730.8502807617188,
        17,
        583.3515625
      ],
      "min": [
        -1712.0035400390625,
        -50,
        250.20614624023438
      ],
      "type": "VEC3"
    },
    {
      "name": "NORMAL",
      "bufferView": 0,
      "byteOffset": 79308,
      "componentType": 5126,
      "count": 1176,
      "max": [
        0.9999806880950928,
        0,
        0.9999804496765137
      ],
      "min": [
        -0.9999806880950928,
        0,
        -0.9999804496765137
      ],
      "type": "VEC3"
    },
    {
      "name": "_BATCHID",
      "bufferView": 0,
      "byteOffset": 79320,
      "componentType": 5126,
      "count": 1176,
      "max": [
        11
      ],
      "min": [
        0
      ],
      "type": "SCALAR"
    },
    {
      "bufferView": 1,
      "byteOffset": 5664,
      "componentType": 5123,
      "count": 1176,
      "type": "SCALAR"
    }
  ],
  "bufferViews": [
    {
      "buffer": 0,
      "byteLength": 188160,
      "byteStride": 28,
      "target": 34962,
      "byteOffset": 0
    },
    {
      "buffer": 0,
      "byteLength": 13440,
      "byteOffset": 188160,
      "target": 34963
    }
  ],
  "buffers": [
    {
      "uri": "3_data.bin",
      "byteLength": 201600
    }
  ],
  "materials": [
    {
      "alphaCutoff": 0,
      "alphaMode": "BLEND",
      "doubleSided": true,
      "pbrMetallicRoughness": {
        "baseColorFactor": [
          1,
          1,
          1,
          0
        ]
      }
    },
    {
      "alphaCutoff": 0,
      "alphaMode": "BLEND",
      "doubleSided": true,
      "pbrMetallicRoughness": {
        "baseColorFactor": [
          0.09411765,
          0.62352943,
          0.28235295,
          0.54901963
        ]
      }
    },
    {
      "alphaCutoff": 0,
      "alphaMode": "BLEND",
      "doubleSided": true,
      "pbrMetallicRoughness": {
        "baseColorFactor": [
          0.75686276,
          0.7647059,
          0.7764706,
          1
        ]
      }
    },
    {
      "alphaCutoff": 0,
      "alphaMode": "BLEND",
      "doubleSided": true,
      "pbrMetallicRoughness": {
        "baseColorFactor": [
          0.09411765,
          0.62352943,
          0.28235295,
          1
        ]
      }
    },
    {
      "alphaCutoff": 0,
      "alphaMode": "BLEND",
      "doubleSided": true,
      "pbrMetallicRoughness": {
        "baseColorFactor": [
          0.59607846,
          0.3137255,
          0.27058825,
          1
        ]
      }
    },
    {
      "alphaCutoff": 0,
      "alphaMode": "BLEND",
      "doubleSided": true,
      "pbrMetallicRoughness": {
        "baseColorFactor": [
          1,
          0.8627451,
          0,
          1
        ]
      }
    },
    {
      "alphaCutoff": 0,
      "alphaMode": "BLEND",
      "doubleSided": true,
      "pbrMetallicRoughness": {
        "baseColorFactor": [
          0.7137255,
          0.81960785,
          0.4117647,
          1
        ]
      }
    },
    {
      "alphaCutoff": 0,
      "alphaMode": "BLEND",
      "doubleSided": true,
      "pbrMetallicRoughness": {
        "baseColorFactor": [
          1,
          0.9411765,
          0,
          1
        ]
      }
    },
    {
      "alphaCutoff": 0,
      "alphaMode": "BLEND",
      "doubleSided": true,
      "pbrMetallicRoughness": {
        "baseColorFactor": [
          1,
          0.78431374,
          0,
          1
        ]
      }
    }
  ],
  "meshes": [
    {
      "name": "mesh",
      "primitives": [
        {
          "attributes": {
            "POSITION": 0,
            "NORMAL": 1,
            "_BATCHID": 2
          },
          "indices": 3,
          "material": 0
        },
        {
          "attributes": {
            "POSITION": 4,
            "NORMAL": 5,
            "_BATCHID": 6
          },
          "indices": 7,
          "material": 1
        },
        {
          "attributes": {
            "POSITION": 8,
            "NORMAL": 9,
            "_BATCHID": 10
          },
          "indices": 11,
          "material": 2
        },
        {
          "attributes": {
            "POSITION": 12,
            "NORMAL": 13,
            "_BATCHID": 14
          },
          "indices": 15,
          "material": 3
        },
        {
          "attributes": {
            "POSITION": 16,
            "NORMAL": 17,
            "_BATCHID": 18
          },
          "indices": 19,
          "material": 4
        },
        {
          "attributes": {
            "POSITION": 20,
            "NORMAL": 21,
            "_BATCHID": 22
          },
          "indices": 23,
          "material": 5
        },
        {
          "attributes": {
            "POSITION": 24,
            "NORMAL": 25,
            "_BATCHID": 26
          },
          "indices": 27,
          "material": 6
        },
        {
          "attributes": {
            "POSITION": 28,
            "NORMAL": 29,
            "_BATCHID": 30
          },
          "indices": 31,
          "material": 7
        },
        {
          "attributes": {
            "POSITION": 32,
            "NORMAL": 33,
            "_BATCHID": 34
          },
          "indices": 35,
          "material": 8
        }
      ]
    }
  ],
  "nodes": [
    {
      "mesh": 0
    }
  ],
  "scene": 0,
  "scenes": [
    {
      "nodes": [
        0
      ]
    }
  ]
}