{
  "asset": {
    "copyright": "",
    "generator": "SharpGLTF 1.0.0-alpha0015",
    "version": "2.0"
  },
  "accessors": [
    {
      "name": "POSITION",
      "bufferView": 0,
      "byteOffset": 153888,
      "componentType": 5126,
      "count": 60,
      "max": [
        248.5597686767578,
        -56,
        577.1754760742188
      ],
      "min": [
        -732.5556030273438,
        -56,
        246.1545867919922
      ],
      "type": "VEC3"
    },
    {
      "name": "NORMAL",
      "bufferView": 0,
      "byteOffset": 153900,
      "componentType": 5126,
      "count": 60,
      "max": [
        5.425143146575107e-19,
        1,
        8.700699934883512e-17
      ],
      "min": [
        2.6683166350341424e-19,
        1,
        4.3504363250977064e-17
      ],
      "type": "VEC3"
    },
    {
      "name": "_BATCHID",
      "bufferView": 0,
      "byteOffset": 153912,
      "componentType": 5126,
      "count": 60,
      "max": [
        9
      ],
      "min": [
        0
      ],
      "type": "SCALAR"
    },
    {
      "bufferView": 1,
      "byteOffset": 10992,
      "componentType": 5123,
      "count": 60,
      "type": "SCALAR"
    },
    {
      "name": "POSITION",
      "bufferView": 0,
      "byteOffset": 155568,
      "componentType": 5126,
      "count": 54,
      "max": [
        248.5597686767578,
        -54,
        577.1754760742188
      ],
      "min": [
        -732.5556030273438,
        -54,
        246.1545867919922
      ],
      "type": "VEC3"
    },
    {
      "name": "NORMAL",
      "bufferView": 0,
      "byteOffset": 155580,
      "componentType": 5126,
      "count": 54,
      "max": [
        5.425143146575107e-19,
        1,
        8.700699934883512e-17
      ],
      "min": [
        2.6683166350341424e-19,
        1,
        4.3504363250977064e-17
      ],
      "type": "VEC3"
    },
    {
      "name": "_BATCHID",
      "bufferView": 0,
      "byteOffset": 155592,
      "componentType": 5126,
      "count": 54,
      "max": [
        9
      ],
      "min": [
        0
      ],
      "type": "SCALAR"
    },
    {
      "bufferView": 1,
      "byteOffset": 11112,
      "componentType": 5123,
      "count": 54,
      "type": "SCALAR"
    },
    {
      "name": "POSITION",
      "bufferView": 0,
      "byteOffset": 147168,
      "componentType": 5126,
      "count": 240,
      "max": [
        248.5597686767578,
        38,
        577.1754760742188
      ],
      "min": [
        -732.5556030273438,
        34,
        246.1545867919922
      ],
      "type": "VEC3"
    },
    {
      "name": "NORMAL",
      "bufferView": 0,
      "byteOffset": 147180,
      "componentType": 5126,
      "count": 240,
      "max": [
        0.9999814629554749,
        0,
        0.9999812245368958
      ],
      "min": [
        -0.9999814629554749,
        0,
        -0.9999812245368958
      ],
      "type": "VEC3"
    },
    {
      "name": "_BATCHID",
      "bufferView": 0,
      "byteOffset": 147192,
      "componentType": 5126,
      "count": 240,
      "max": [
        9
      ],
      "min": [
        0
      ],
      "type": "SCALAR"
    },
    {
      "bufferView": 1,
      "byteOffset": 10512,
      "componentType": 5123,
      "count": 240,
      "type": "SCALAR"
    },
    {
      "name": "POSITION",
      "bufferView": 0,
      "byteOffset": 102144,
      "componentType": 5126,
      "count": 696,
      "max": [
        248.5597686767578,
        36,
        577.1754760742188
      ],
      "min": [
        -732.5556030273438,
        -56,
        246.1545867919922
      ],
      "type": "VEC3"
    },
    {
      "name": "NORMAL",
      "bufferView": 0,
      "byteOffset": 102156,
      "componentType": 5126,
      "count": 696,
      "max": [
        0.9999814629554749,
        0,
        0.9999812245368958
      ],
      "min": [
        -0.9999814629554749,
        0,
        -0.9999812245368958
      ],
      "type": "VEC3"
    },
    {
      "name": "_BATCHID",
      "bufferView": 0,
      "byteOffset": 102168,
      "componentType": 5126,
      "count": 696,
      "max": [
        9
      ],
      "min": [
        0
      ],
      "type": "SCALAR"
    },
    {
      "bufferView": 1,
      "byteOffset": 7296,
      "componentType": 5123,
      "count": 696,
      "type": "SCALAR"
    },
    {
      "name": "POSITION",
      "bufferView": 0,
      "byteOffset": 138432,
      "componentType": 5126,
      "count": 312,
      "max": [
        248.5597686767578,
        34,
        577.1754760742188
      ],
      "min": [
        -732.5556030273438,
        -38,
        246.1545867919922
      ],
      "type": "VEC3"
    },
    {
      "name": "NORMAL",
      "bufferView": 0,
      "byteOffset": 138444,
      "componentType": 5126,
      "count": 312,
      "max": [
        0.9999814629554749,
        0,
        0.9999812245368958
      ],
      "min": [
        -0.9999814629554749,
        0,
        -0.9999812245368958
      ],
      "type": "VEC3"
    },
    {
      "name": "_BATCHID",
      "bufferView": 0,
      "byteOffset": 138456,
      "componentType": 5126,
      "count": 312,
      "max": [
        9
      ],
      "min": [
        0
      ],
      "type": "SCALAR"
    },
    {
      "bufferView": 1,
      "byteOffset": 9888,
      "componentType": 5123,
      "count": 312,
      "type": "SCALAR"
    },
    {
      "name": "POSITION",
      "bufferView": 0,
      "byteOffset": 36960,
      "componentType": 5126,
      "count": 1224,
      "max": [
        248.5597686767578,
        36,
        577.1754760742188
      ],
      "min": [
        -732.5556030273438,
        -56,
        246.1545867919922
      ],
      "type": "VEC3"
    },
    {
      "name": "NORMAL",
      "bufferView": 0,
      "byteOffset": 36972,
      "componentType": 5126,
      "count": 1224,
      "max": [
        0.9999814629554749,
        0,
        0.9999812245368958
      ],
      "min": [
        -0.9999814629554749,
        0,
        -0.9999812245368958
      ],
      "type": "VEC3"
    },
    {
      "name": "_BATCHID",
      "bufferView": 0,
      "byteOffset": 36984,
      "componentType": 5126,
      "count": 1224,
      "max": [
        9
      ],
      "min": [
        0
      ],
      "type": "SCALAR"
    },
    {
      "bufferView": 1,
      "byteOffset": 2640,
      "componentType": 5123,
      "count": 1224,
      "type": "SCALAR"
    },
    {
      "name": "POSITION",
      "bufferView": 0,
      "componentType": 5126,
      "count": 1320,
      "max": [
        248.5597686767578,
        26,
        577.1754760742188
      ],
      "min": [
        -732.5556030273438,
        -51,
        246.1545867919922
      ],
      "type": "VEC3"
    },
    {
      "name": "NORMAL",
      "bufferView": 0,
      "byteOffset": 12,
      "componentType": 5126,
      "count": 1320,
      "max": [
        0.9999814629554749,
        0,
        0.9999812245368958
      ],
      "min": [
        -0.9999814629554749,
        0,
        -0.9999812245368958
      ],
      "type": "VEC3"
    },
    {
      "name": "_BATCHID",
      "bufferView": 0,
      "byteOffset": 24,
      "componentType": 5126,
      "count": 1320,
      "max": [
        9
      ],
      "min": [
        0
      ],
      "type": "SCALAR"
    },
    {
      "bufferView": 1,
      "componentType": 5123,
      "count": 1320,
      "type": "SCALAR"
    },
    {
      "name": "POSITION",
      "bufferView": 0,
      "byteOffset": 71232,
      "componentType": 5126,
      "count": 1104,
      "max": [
        248.5597686767578,
        17,
        577.1754760742188
      ],
      "min": [
        -732.5556030273438,
        -53,
        246.1545867919922
      ],
      "type": "VEC3"
    },
    {
      "name": "NORMAL",
      "bufferView": 0,
      "byteOffset": 71244,
      "componentType": 5126,
      "count": 1104,
      "max": [
        0.9999814629554749,
        0,
        0.9999812245368958
      ],
      "min": [
        -0.9999814629554749,
        0,
        -0.9999812245368958
      ],
      "type": "VEC3"
    },
    {
      "name": "_BATCHID",
      "bufferView": 0,
      "byteOffset": 71256,
      "componentType": 5126,
      "count": 1104,
      "max": [
        9
      ],
      "min": [
        0
      ],
      "type": "SCALAR"
    },
    {
      "bufferView": 1,
      "byteOffset": 5088,
      "componentType": 5123,
      "count": 1104,
      "type": "SCALAR"
    },
    {
      "name": "POSITION",
      "bufferView": 0,
      "byteOffset": 121632,
      "componentType": 5126,
      "count": 600,
      "max": [
        248.5597686767578,
        24,
        577.1754760742188
      ],
      "min": [
        -732.5556030273438,
        -54,
        246.1545867919922
      ],
      "type": "VEC3"
    },
    {
      "name": "NORMAL",
      "bufferView": 0,
      "byteOffset": 121644,
      "componentType": 5126,
      "count": 600,
      "max": [
        0.9999814629554749,
        0,
        0.9999812245368958
      ],
      "min": [
        -0.9999814629554749,
        0,
        -0.9999812245368958
      ],
      "type": "VEC3"
    },
    {
      "name": "_BATCHID",
      "bufferView": 0,
      "byteOffset": 121656,
      "componentType": 5126,
      "count": 600,
      "max": [
        9
      ],
      "min": [
        0
      ],
      "type": "SCALAR"
    },
    {
      "bufferView": 1,
      "byteOffset": 8688,
      "componentType": 5123,
      "count": 600,
      "type": "SCALAR"
    },
    {
      "name": "POSITION",
      "bufferView": 0,
      "byteOffset": 157080,
      "componentType": 5126,
      "count": 6,
      "max": [
        85.32463836669922,
        -54,
        573.1243286132812
      ],
      "min": [
        -78.58562469482422,
        -54,
        408.80120849609375
      ],
      "type": "VEC3"
    },
    {
      "name": "NORMAL",
      "bufferView": 0,
      "byteOffset": 157092,
      "componentType": 5126,
      "count": 6,
      "max": [
        2.67722743818287e-19,
        1,
        4.3504369868421964e-17
      ],
      "min": [
        2.677159712770217e-19,
        1,
        4.3504363250977064e-17
      ],
      "type": "VEC3"
    },
    {
      "name": "_BATCHID",
      "bufferView": 0,
      "byteOffset": 157104,
      "componentType": 5126,
      "count": 6,
      "max": [
        1
      ],
      "min": [
        1
      ],
      "type": "SCALAR"
    },
    {
      "bufferView": 1,
      "byteOffset": 11220,
      "componentType": 5123,
      "count": 6,
      "type": "SCALAR"
    }
  ],
  "bufferViews": [
    {
      "buffer": 0,
      "byteLength": 157248,
      "byteStride": 28,
      "target": 34962,
      "byteOffset": 0
    },
    {
      "buffer": 0,
      "byteLength": 11232,
      "byteOffset": 157248,
      "target": 34963
    }
  ],
  "buffers": [
    {
      "uri": "5_data.bin",
      "byteLength": 168480
    }
  ],
  "materials": [
    {
      "alphaCutoff": 0,
      "alphaMode": "BLEND",
      "doubleSided": true,
      "pbrMetallicRoughness": {
        "baseColorFactor": [
          1,
          1,
          1,
          0
        ]
      }
    },
    {
      "alphaCutoff": 0,
      "alphaMode": "BLEND",
      "doubleSided": true,
      "pbrMetallicRoughness": {
        "baseColorFactor": [
          0.09411765,
          0.62352943,
          0.28235295,
          0.54901963
        ]
      }
    },
    {
      "alphaCutoff": 0,
      "alphaMode": "BLEND",
      "doubleSided": true,
      "pbrMetallicRoughness": {
        "baseColorFactor": [
          0.75686276,
          0.7647059,
          0.7764706,
          1
        ]
      }
    },
    {
      "alphaCutoff": 0,
      "alphaMode": "BLEND",
      "doubleSided": true,
      "pbrMetallicRoughness": {
        "baseColorFactor": [
          0.09411765,
          0.62352943,
          0.28235295,
          1
        ]
      }
    },
    {
      "alphaCutoff": 0,
      "alphaMode": "BLEND",
      "doubleSided": true,
      "pbrMetallicRoughness": {
        "baseColorFactor": [
          0.59607846,
          0.3137255,
          0.27058825,
          1
        ]
      }
    },
    {
      "alphaCutoff": 0,
      "alphaMode": "BLEND",
      "doubleSided": true,
      "pbrMetallicRoughness": {
        "baseColorFactor": [
          1,
          0.8627451,
          0,
          1
        ]
      }
    },
    {
      "alphaCutoff": 0,
      "alphaMode": "BLEND",
      "doubleSided": true,
      "pbrMetallicRoughness": {
        "baseColorFactor": [
          1,
          0.9411765,
          0,
          1
        ]
      }
    },
    {
      "alphaCutoff": 0,
      "alphaMode": "BLEND",
      "doubleSided": true,
      "pbrMetallicRoughness": {
        "baseColorFactor": [
          1,
          0.78431374,
          0,
          1
        ]
      }
    },
    {
      "alphaCutoff": 0,
      "alphaMode": "BLEND",
      "doubleSided": true,
      "pbrMetallicRoughness": {
        "baseColorFactor": [
          0.7137255,
          0.81960785,
          0.4117647,
          1
        ]
      }
    },
    {
      "alphaCutoff": 0,
      "alphaMode": "BLEND",
      "doubleSided": true,
      "pbrMetallicRoughness": {
        "baseColorFactor": [
          1,
          0.8627451,
          0,
          0.54901963
        ]
      }
    }
  ],
  "meshes": [
    {
      "name": "mesh",
      "primitives": [
        {
          "attributes": {
            "POSITION": 0,
            "NORMAL": 1,
            "_BATCHID": 2
          },
          "indices": 3,
          "material": 0
        },
        {
          "attributes": {
            "POSITION": 4,
            "NORMAL": 5,
            "_BATCHID": 6
          },
          "indices": 7,
          "material": 1
        },
        {
          "attributes": {
            "POSITION": 8,
            "NORMAL": 9,
            "_BATCHID": 10
          },
          "indices": 11,
          "material": 2
        },
        {
          "attributes": {
            "POSITION": 12,
            "NORMAL": 13,
            "_BATCHID": 14
          },
          "indices": 15,
          "material": 3
        },
        {
          "attributes": {
            "POSITION": 16,
            "NORMAL": 17,
            "_BATCHID": 18
          },
          "indices": 19,
          "material": 4
        },
        {
          "attributes": {
            "POSITION": 20,
            "NORMAL": 21,
            "_BATCHID": 22
          },
          "indices": 23,
          "material": 5
        },
        {
          "attributes": {
            "POSITION": 24,
            "NORMAL": 25,
            "_BATCHID": 26
          },
          "indices": 27,
          "material": 6
        },
        {
          "attributes": {
            "POSITION": 28,
            "NORMAL": 29,
            "_BATCHID": 30
          },
          "indices": 31,
          "material": 7
        },
        {
          "attributes": {
            "POSITION": 32,
            "NORMAL": 33,
            "_BATCHID": 34
          },
          "indices": 35,
          "material": 8
        },
        {
          "attributes": {
            "POSITION": 36,
            "NORMAL": 37,
            "_BATCHID": 38
          },
          "indices": 39,
          "material": 9
        }
      ]
    }
  ],
  "nodes": [
    {
      "mesh": 0
    }
  ],
  "scene": 0,
  "scenes": [
    {
      "nodes": [
        0
      ]
    }
  ]
}