{
  "asset": {
    "copyright": "",
    "generator": "SharpGLTF 1.0.0-alpha0015",
    "version": "2.0"
  },
  "accessors": [
    {
      "name": "POSITION",
      "bufferView": 0,
      "byteOffset": 315840,
      "componentType": 5126,
      "count": 132,
      "max": [
        242.57667541503906,
        -56,
        -404.7601318359375
      ],
      "min": [
        -740.692626953125,
        -56,
        -1063.1734619140625
      ],
      "type": "VEC3"
    },
    {
      "name": "NORMAL",
      "bufferView": 0,
      "byteOffset": 315852,
      "componentType": 5126,
      "count": 132,
      "max": [
        5.425320990406806e-19,
        1,
        8.726837518751207e-17
      ],
      "min": [
        -4.306835304137791e-17,
        1,
        4.349648187410066e-17
      ],
      "type": "VEC3"
    },
    {
      "name": "_BATCHID",
      "bufferView": 0,
      "byteOffset": 315864,
      "componentType": 5126,
      "count": 132,
      "max": [
        21
      ],
      "min": [
        0
      ],
      "type": "SCALAR"
    },
    {
      "bufferView": 1,
      "byteOffset": 22560,
      "componentType": 5123,
      "count": 132,
      "type": "SCALAR"
    },
    {
      "name": "POSITION",
      "bufferView": 0,
      "byteOffset": 319536,
      "componentType": 5126,
      "count": 132,
      "max": [
        242.57667541503906,
        -54,
        -404.7601318359375
      ],
      "min": [
        -740.692626953125,
        -54,
        -1063.1734619140625
      ],
      "type": "VEC3"
    },
    {
      "name": "NORMAL",
      "bufferView": 0,
      "byteOffset": 319548,
      "componentType": 5126,
      "count": 132,
      "max": [
        5.425320990406806e-19,
        1,
        8.726837518751207e-17
      ],
      "min": [
        -4.306835304137791e-17,
        1,
        4.349648187410066e-17
      ],
      "type": "VEC3"
    },
    {
      "name": "_BATCHID",
      "bufferView": 0,
      "byteOffset": 319560,
      "componentType": 5126,
      "count": 132,
      "max": [
        21
      ],
      "min": [
        0
      ],
      "type": "SCALAR"
    },
    {
      "bufferView": 1,
      "byteOffset": 22824,
      "componentType": 5123,
      "count": 132,
      "type": "SCALAR"
    },
    {
      "name": "POSITION",
      "bufferView": 0,
      "byteOffset": 301056,
      "componentType": 5126,
      "count": 528,
      "max": [
        242.57667541503906,
        47,
        -404.7601318359375
      ],
      "min": [
        -740.692626953125,
        36,
        -1063.1734619140625
      ],
      "type": "VEC3"
    },
    {
      "name": "NORMAL",
      "bufferView": 0,
      "byteOffset": 301068,
      "componentType": 5126,
      "count": 528,
      "max": [
        0.9999814629554749,
        0,
        0.9999812245368958
      ],
      "min": [
        -0.9999814629554749,
        0,
        -0.9999812245368958
      ],
      "type": "VEC3"
    },
    {
      "name": "_BATCHID",
      "bufferView": 0,
      "byteOffset": 301080,
      "componentType": 5126,
      "count": 528,
      "max": [
        21
      ],
      "min": [
        0
      ],
      "type": "SCALAR"
    },
    {
      "bufferView": 1,
      "byteOffset": 21504,
      "componentType": 5123,
      "count": 528,
      "type": "SCALAR"
    },
    {
      "name": "POSITION",
      "bufferView": 0,
      "byteOffset": 252672,
      "componentType": 5126,
      "count": 1080,
      "max": [
        242.57667541503906,
        43,
        -404.7601318359375
      ],
      "min": [
        -740.692626953125,
        -42,
        -1063.1734619140625
      ],
      "type": "VEC3"
    },
    {
      "name": "NORMAL",
      "bufferView": 0,
      "byteOffset": 252684,
      "componentType": 5126,
      "count": 1080,
      "max": [
        0.9999814629554749,
        0,
        0.9999812245368958
      ],
      "min": [
        -0.9999814629554749,
        0,
        -0.9999812245368958
      ],
      "type": "VEC3"
    },
    {
      "name": "_BATCHID",
      "bufferView": 0,
      "byteOffset": 252696,
      "componentType": 5126,
      "count": 1080,
      "max": [
        21
      ],
      "min": [
        0
      ],
      "type": "SCALAR"
    },
    {
      "bufferView": 1,
      "byteOffset": 18048,
      "componentType": 5123,
      "count": 1080,
      "type": "SCALAR"
    },
    {
      "name": "POSITION",
      "bufferView": 0,
      "byteOffset": 211008,
      "componentType": 5126,
      "count": 1488,
      "max": [
        242.57667541503906,
        34,
        -404.7601318359375
      ],
      "min": [
        -740.692626953125,
        -50,
        -1063.1734619140625
      ],
      "type": "VEC3"
    },
    {
      "name": "NORMAL",
      "bufferView": 0,
      "byteOffset": 211020,
      "componentType": 5126,
      "count": 1488,
      "max": [
        0.9999814629554749,
        0,
        0.9999812245368958
      ],
      "min": [
        -0.9999814629554749,
        0,
        -0.9999812245368958
      ],
      "type": "VEC3"
    },
    {
      "name": "_BATCHID",
      "bufferView": 0,
      "byteOffset": 211032,
      "componentType": 5126,
      "count": 1488,
      "max": [
        21
      ],
      "min": [
        0
      ],
      "type": "SCALAR"
    },
    {
      "bufferView": 1,
      "byteOffset": 15072,
      "componentType": 5123,
      "count": 1488,
      "type": "SCALAR"
    },
    {
      "name": "POSITION",
      "bufferView": 0,
      "componentType": 5126,
      "count": 3000,
      "max": [
        242.57667541503906,
        27,
        -404.7601318359375
      ],
      "min": [
        -740.692626953125,
        -56,
        -1063.1734619140625
      ],
      "type": "VEC3"
    },
    {
      "name": "NORMAL",
      "bufferView": 0,
      "byteOffset": 12,
      "componentType": 5126,
      "count": 3000,
      "max": [
        0.9999814629554749,
        0,
        0.9999812245368958
      ],
      "min": [
        -0.9999814629554749,
        0,
        -0.9999812245368958
      ],
      "type": "VEC3"
    },
    {
      "name": "_BATCHID",
      "bufferView": 0,
      "byteOffset": 24,
      "componentType": 5126,
      "count": 3000,
      "max": [
        21
      ],
      "min": [
        0
      ],
      "type": "SCALAR"
    },
    {
      "bufferView": 1,
      "componentType": 5123,
      "count": 3000,
      "type": "SCALAR"
    },
    {
      "name": "POSITION",
      "bufferView": 0,
      "byteOffset": 148512,
      "componentType": 5126,
      "count": 2232,
      "max": [
        242.57667541503906,
        24,
        -404.7601318359375
      ],
      "min": [
        -740.692626953125,
        -51,
        -1063.1734619140625
      ],
      "type": "VEC3"
    },
    {
      "name": "NORMAL",
      "bufferView": 0,
      "byteOffset": 148524,
      "componentType": 5126,
      "count": 2232,
      "max": [
        0.9999814629554749,
        0,
        0.9999812245368958
      ],
      "min": [
        -0.9999814629554749,
        0,
        -0.9999812245368958
      ],
      "type": "VEC3"
    },
    {
      "name": "_BATCHID",
      "bufferView": 0,
      "byteOffset": 148536,
      "componentType": 5126,
      "count": 2232,
      "max": [
        21
      ],
      "min": [
        0
      ],
      "type": "SCALAR"
    },
    {
      "bufferView": 1,
      "byteOffset": 10608,
      "componentType": 5123,
      "count": 2232,
      "type": "SCALAR"
    },
    {
      "name": "POSITION",
      "bufferView": 0,
      "byteOffset": 84000,
      "componentType": 5126,
      "count": 2304,
      "max": [
        242.57667541503906,
        14,
        -404.7601318359375
      ],
      "min": [
        -740.692626953125,
        -56,
        -1063.1734619140625
      ],
      "type": "VEC3"
    },
    {
      "name": "NORMAL",
      "bufferView": 0,
      "byteOffset": 84012,
      "componentType": 5126,
      "count": 2304,
      "max": [
        0.9999814629554749,
        0,
        0.9999812245368958
      ],
      "min": [
        -0.9999814629554749,
        0,
        -0.9999812245368958
      ],
      "type": "VEC3"
    },
    {
      "name": "_BATCHID",
      "bufferView": 0,
      "byteOffset": 84024,
      "componentType": 5126,
      "count": 2304,
      "max": [
        21
      ],
      "min": [
        0
      ],
      "type": "SCALAR"
    },
    {
      "bufferView": 1,
      "byteOffset": 6000,
      "componentType": 5123,
      "count": 2304,
      "type": "SCALAR"
    },
    {
      "name": "POSITION",
      "bufferView": 0,
      "byteOffset": 282912,
      "componentType": 5126,
      "count": 648,
      "max": [
        242.57667541503906,
        26,
        -404.7601318359375
      ],
      "min": [
        -740.692626953125,
        -54,
        -1063.1734619140625
      ],
      "type": "VEC3"
    },
    {
      "name": "NORMAL",
      "bufferView": 0,
      "byteOffset": 282924,
      "componentType": 5126,
      "count": 648,
      "max": [
        0.9999814629554749,
        0,
        0.9999812245368958
      ],
      "min": [
        -0.9999814629554749,
        0,
        -0.9999812245368958
      ],
      "type": "VEC3"
    },
    {
      "name": "_BATCHID",
      "bufferView": 0,
      "byteOffset": 282936,
      "componentType": 5126,
      "count": 648,
      "max": [
        21
      ],
      "min": [
        3
      ],
      "type": "SCALAR"
    },
    {
      "bufferView": 1,
      "byteOffset": 20208,
      "componentType": 5123,
      "count": 648,
      "type": "SCALAR"
    }
  ],
  "bufferViews": [
    {
      "buffer": 0,
      "byteLength": 323232,
      "byteStride": 28,
      "target": 34962,
      "byteOffset": 0
    },
    {
      "buffer": 0,
      "byteLength": 23088,
      "byteOffset": 323232,
      "target": 34963
    }
  ],
  "buffers": [
    {
      "uri": "8_data.bin",
      "byteLength": 346320
    }
  ],
  "materials": [
    {
      "alphaCutoff": 0,
      "alphaMode": "BLEND",
      "doubleSided": true,
      "pbrMetallicRoughness": {
        "baseColorFactor": [
          1,
          1,
          1,
          0
        ]
      }
    },
    {
      "alphaCutoff": 0,
      "alphaMode": "BLEND",
      "doubleSided": true,
      "pbrMetallicRoughness": {
        "baseColorFactor": [
          0.59607846,
          0.3137255,
          0.27058825,
          0.54901963
        ]
      }
    },
    {
      "alphaCutoff": 0,
      "alphaMode": "BLEND",
      "doubleSided": true,
      "pbrMetallicRoughness": {
        "baseColorFactor": [
          0.75686276,
          0.7647059,
          0.7764706,
          1
        ]
      }
    },
    {
      "alphaCutoff": 0,
      "alphaMode": "BLEND",
      "doubleSided": true,
      "pbrMetallicRoughness": {
        "baseColorFactor": [
          0.59607846,
          0.3137255,
          0.27058825,
          1
        ]
      }
    },
    {
      "alphaCutoff": 0,
      "alphaMode": "BLEND",
      "doubleSided": true,
      "pbrMetallicRoughness": {
        "baseColorFactor": [
          0.09411765,
          0.62352943,
          0.28235295,
          1
        ]
      }
    },
    {
      "alphaCutoff": 0,
      "alphaMode": "BLEND",
      "doubleSided": true,
      "pbrMetallicRoughness": {
        "baseColorFactor": [
          1,
          0.9411765,
          0,
          1
        ]
      }
    },
    {
      "alphaCutoff": 0,
      "alphaMode": "BLEND",
      "doubleSided": true,
      "pbrMetallicRoughness": {
        "baseColorFactor": [
          1,
          0.8627451,
          0,
          1
        ]
      }
    },
    {
      "alphaCutoff": 0,
      "alphaMode": "BLEND",
      "doubleSided": true,
      "pbrMetallicRoughness": {
        "baseColorFactor": [
          1,
          0.78431374,
          0,
          1
        ]
      }
    },
    {
      "alphaCutoff": 0,
      "alphaMode": "BLEND",
      "doubleSided": true,
      "pbrMetallicRoughness": {
        "baseColorFactor": [
          0.7137255,
          0.81960785,
          0.4117647,
          1
        ]
      }
    }
  ],
  "meshes": [
    {
      "name": "mesh",
      "primitives": [
        {
          "attributes": {
            "POSITION": 0,
            "NORMAL": 1,
            "_BATCHID": 2
          },
          "indices": 3,
          "material": 0
        },
        {
          "attributes": {
            "POSITION": 4,
            "NORMAL": 5,
            "_BATCHID": 6
          },
          "indices": 7,
          "material": 1
        },
        {
          "attributes": {
            "POSITION": 8,
            "NORMAL": 9,
            "_BATCHID": 10
          },
          "indices": 11,
          "material": 2
        },
        {
          "attributes": {
            "POSITION": 12,
            "NORMAL": 13,
            "_BATCHID": 14
          },
          "indices": 15,
          "material": 3
        },
        {
          "attributes": {
            "POSITION": 16,
            "NORMAL": 17,
            "_BATCHID": 18
          },
          "indices": 19,
          "material": 4
        },
        {
          "attributes": {
            "POSITION": 20,
            "NORMAL": 21,
            "_BATCHID": 22
          },
          "indices": 23,
          "material": 5
        },
        {
          "attributes": {
            "POSITION": 24,
            "NORMAL": 25,
            "_BATCHID": 26
          },
          "indices": 27,
          "material": 6
        },
        {
          "attributes": {
            "POSITION": 28,
            "NORMAL": 29,
            "_BATCHID": 30
          },
          "indices": 31,
          "material": 7
        },
        {
          "attributes": {
            "POSITION": 32,
            "NORMAL": 33,
            "_BATCHID": 34
          },
          "indices": 35,
          "material": 8
        }
      ]
    }
  ],
  "nodes": [
    {
      "mesh": 0
    }
  ],
  "scene": 0,
  "scenes": [
    {
      "nodes": [
        0
      ]
    }
  ]
}