{
  "asset": {
    "copyright": "",
    "generator": "SharpGLTF 1.0.0-alpha0015",
    "version": "2.0"
  },
  "accessors": [
    {
      "name": "POSITION",
      "bufferView": 0,
      "byteOffset": 57792,
      "componentType": 5126,
      "count": 24,
      "max": [
        901.500732421875,
        -56,
        571.11865234375
      ],
      "min": [
        247.89117431640625,
        -56,
        403.8280334472656
      ],
      "type": "VEC3"
    },
    {
      "name": "NORMAL",
      "bufferView": 0,
      "byteOffset": 57804,
      "componentType": 5126,
      "count": 24,
      "max": [
        5.283874139636004e-19,
        1,
        8.727268314414225e-17
      ],
      "min": [
        -4.3083361406412075e-17,
        1,
        4.3504359942254613e-17
      ],
      "type": "VEC3"
    },
    {
      "name": "_BATCHID",
      "bufferView": 0,
      "byteOffset": 57816,
      "componentType": 5126,
      "count": 24,
      "max": [
        3
      ],
      "min": [
        0
      ],
      "type": "SCALAR"
    },
    {
      "bufferView": 1,
      "byteOffset": 4128,
      "componentType": 5123,
      "count": 24,
      "type": "SCALAR"
    },
    {
      "name": "POSITION",
      "bufferView": 0,
      "byteOffset": 58464,
      "componentType": 5126,
      "count": 18,
      "max": [
        901.500732421875,
        -54,
        571.11865234375
      ],
      "min": [
        247.89117431640625,
        -54,
        403.8280334472656
      ],
      "type": "VEC3"
    },
    {
      "name": "NORMAL",
      "bufferView": 0,
      "byteOffset": 58476,
      "componentType": 5126,
      "count": 18,
      "max": [
        5.266187984163855e-19,
        1,
        8.727268314414225e-17
      ],
      "min": [
        -4.3083361406412075e-17,
        1,
        4.3504359942254613e-17
      ],
      "type": "VEC3"
    },
    {
      "name": "_BATCHID",
      "bufferView": 0,
      "byteOffset": 58488,
      "componentType": 5126,
      "count": 18,
      "max": [
        3
      ],
      "min": [
        0
      ],
      "type": "SCALAR"
    },
    {
      "bufferView": 1,
      "byteOffset": 4176,
      "componentType": 5123,
      "count": 18,
      "type": "SCALAR"
    },
    {
      "name": "POSITION",
      "bufferView": 0,
      "byteOffset": 55104,
      "componentType": 5126,
      "count": 96,
      "max": [
        901.500732421875,
        39,
        571.11865234375
      ],
      "min": [
        247.89117431640625,
        35,
        403.8280334472656
      ],
      "type": "VEC3"
    },
    {
      "name": "NORMAL",
      "bufferView": 0,
      "byteOffset": 55116,
      "componentType": 5126,
      "count": 96,
      "max": [
        0.9999819397926331,
        0,
        0.999981701374054
      ],
      "min": [
        -0.9999819397926331,
        0,
        -0.999981701374054
      ],
      "type": "VEC3"
    },
    {
      "name": "_BATCHID",
      "bufferView": 0,
      "byteOffset": 55128,
      "componentType": 5126,
      "count": 96,
      "max": [
        3
      ],
      "min": [
        0
      ],
      "type": "SCALAR"
    },
    {
      "bufferView": 1,
      "byteOffset": 3936,
      "componentType": 5123,
      "count": 96,
      "type": "SCALAR"
    },
    {
      "name": "POSITION",
      "bufferView": 0,
      "byteOffset": 43680,
      "componentType": 5126,
      "count": 168,
      "max": [
        901.500732421875,
        38,
        571.11865234375
      ],
      "min": [
        247.89117431640625,
        -42,
        403.8280334472656
      ],
      "type": "VEC3"
    },
    {
      "name": "NORMAL",
      "bufferView": 0,
      "byteOffset": 43692,
      "componentType": 5126,
      "count": 168,
      "max": [
        0.9999819397926331,
        0,
        0.999981701374054
      ],
      "min": [
        -0.9999819397926331,
        0,
        -0.999981701374054
      ],
      "type": "VEC3"
    },
    {
      "name": "_BATCHID",
      "bufferView": 0,
      "byteOffset": 43704,
      "componentType": 5126,
      "count": 168,
      "max": [
        3
      ],
      "min": [
        0
      ],
      "type": "SCALAR"
    },
    {
      "bufferView": 1,
      "byteOffset": 3120,
      "componentType": 5123,
      "count": 168,
      "type": "SCALAR"
    },
    {
      "name": "POSITION",
      "bufferView": 0,
      "byteOffset": 48384,
      "componentType": 5126,
      "count": 120,
      "max": [
        901.500732421875,
        36,
        571.11865234375
      ],
      "min": [
        247.89117431640625,
        -42,
        403.8280334472656
      ],
      "type": "VEC3"
    },
    {
      "name": "NORMAL",
      "bufferView": 0,
      "byteOffset": 48396,
      "componentType": 5126,
      "count": 120,
      "max": [
        0.9999819397926331,
        0,
        0.999981701374054
      ],
      "min": [
        -0.9999819397926331,
        0,
        -0.999981701374054
      ],
      "type": "VEC3"
    },
    {
      "name": "_BATCHID",
      "bufferView": 0,
      "byteOffset": 48408,
      "componentType": 5126,
      "count": 120,
      "max": [
        3
      ],
      "min": [
        0
      ],
      "type": "SCALAR"
    },
    {
      "bufferView": 1,
      "byteOffset": 3456,
      "componentType": 5123,
      "count": 120,
      "type": "SCALAR"
    },
    {
      "name": "POSITION",
      "bufferView": 0,
      "byteOffset": 51744,
      "componentType": 5126,
      "count": 120,
      "max": [
        901.500732421875,
        38,
        570.1207275390625
      ],
      "min": [
        411.129638671875,
        26,
        403.8280334472656
      ],
      "type": "VEC3"
    },
    {
      "name": "NORMAL",
      "bufferView": 0,
      "byteOffset": 51756,
      "componentType": 5126,
      "count": 120,
      "max": [
        0.9999819397926331,
        0,
        0.999981701374054
      ],
      "min": [
        -0.9999819397926331,
        0,
        -0.999981701374054
      ],
      "type": "VEC3"
    },
    {
      "name": "_BATCHID",
      "bufferView": 0,
      "byteOffset": 51768,
      "componentType": 5126,
      "count": 120,
      "max": [
        2
      ],
      "min": [
        0
      ],
      "type": "SCALAR"
    },
    {
      "bufferView": 1,
      "byteOffset": 3696,
      "componentType": 5123,
      "count": 120,
      "type": "SCALAR"
    },
    {
      "name": "POSITION",
      "bufferView": 0,
      "byteOffset": 30912,
      "componentType": 5126,
      "count": 456,
      "max": [
        901.500732421875,
        27,
        571.11865234375
      ],
      "min": [
        247.89117431640625,
        -55,
        403.8280334472656
      ],
      "type": "VEC3"
    },
    {
      "name": "NORMAL",
      "bufferView": 0,
      "byteOffset": 30924,
      "componentType": 5126,
      "count": 456,
      "max": [
        0.9999819993972778,
        0,
        0.999981701374054
      ],
      "min": [
        -0.9999819993972778,
        0,
        -0.999981701374054
      ],
      "type": "VEC3"
    },
    {
      "name": "_BATCHID",
      "bufferView": 0,
      "byteOffset": 30936,
      "componentType": 5126,
      "count": 456,
      "max": [
        3
      ],
      "min": [
        0
      ],
      "type": "SCALAR"
    },
    {
      "bufferView": 1,
      "byteOffset": 2208,
      "componentType": 5123,
      "count": 456,
      "type": "SCALAR"
    },
    {
      "name": "POSITION",
      "bufferView": 0,
      "componentType": 5126,
      "count": 600,
      "max": [
        901.500732421875,
        28,
        571.11865234375
      ],
      "min": [
        247.89117431640625,
        -56,
        403.8280334472656
      ],
      "type": "VEC3"
    },
    {
      "name": "NORMAL",
      "bufferView": 0,
      "byteOffset": 12,
      "componentType": 5126,
      "count": 600,
      "max": [
        0.9999819397926331,
        0,
        0.999981701374054
      ],
      "min": [
        -0.9999819397926331,
        0,
        -0.999981701374054
      ],
      "type": "VEC3"
    },
    {
      "name": "_BATCHID",
      "bufferView": 0,
      "byteOffset": 24,
      "componentType": 5126,
      "count": 600,
      "max": [
        3
      ],
      "min": [
        0
      ],
      "type": "SCALAR"
    },
    {
      "bufferView": 1,
      "componentType": 5123,
      "count": 600,
      "type": "SCALAR"
    },
    {
      "name": "POSITION",
      "bufferView": 0,
      "byteOffset": 16800,
      "componentType": 5126,
      "count": 504,
      "max": [
        901.500732421875,
        17,
        571.11865234375
      ],
      "min": [
        247.89117431640625,
        -53,
        403.8280334472656
      ],
      "type": "VEC3"
    },
    {
      "name": "NORMAL",
      "bufferView": 0,
      "byteOffset": 16812,
      "componentType": 5126,
      "count": 504,
      "max": [
        0.9999819397926331,
        0,
        0.999981701374054
      ],
      "min": [
        -0.9999819397926331,
        0,
        -0.999981701374054
      ],
      "type": "VEC3"
    },
    {
      "name": "_BATCHID",
      "bufferView": 0,
      "byteOffset": 16824,
      "componentType": 5126,
      "count": 504,
      "max": [
        3
      ],
      "min": [
        0
      ],
      "type": "SCALAR"
    },
    {
      "bufferView": 1,
      "byteOffset": 1200,
      "componentType": 5123,
      "count": 504,
      "type": "SCALAR"
    },
    {
      "name": "POSITION",
      "bufferView": 0,
      "byteOffset": 58968,
      "componentType": 5126,
      "count": 6,
      "max": [
        738.2654418945312,
        -54,
        569.1261596679688
      ],
      "min": [
        574.3681640625,
        -54,
        404.8160400390625
      ],
      "type": "VEC3"
    },
    {
      "name": "NORMAL",
      "bufferView": 0,
      "byteOffset": 58980,
      "componentType": 5126,
      "count": 6,
      "max": [
        5.283874139636004e-19,
        1,
        8.700873311939903e-17
      ],
      "min": [
        5.28373713784705e-19,
        1,
        8.700871326706433e-17
      ],
      "type": "VEC3"
    },
    {
      "name": "_BATCHID",
      "bufferView": 0,
      "byteOffset": 58992,
      "componentType": 5126,
      "count": 6,
      "max": [
        1
      ],
      "min": [
        1
      ],
      "type": "SCALAR"
    },
    {
      "bufferView": 1,
      "byteOffset": 4212,
      "componentType": 5123,
      "count": 6,
      "type": "SCALAR"
    }
  ],
  "bufferViews": [
    {
      "buffer": 0,
      "byteLength": 59136,
      "byteStride": 28,
      "target": 34962,
      "byteOffset": 0
    },
    {
      "buffer": 0,
      "byteLength": 4224,
      "byteOffset": 59136,
      "target": 34963
    }
  ],
  "buffers": [
    {
      "uri": "11_data.bin",
      "byteLength": 63360
    }
  ],
  "materials": [
    {
      "alphaCutoff": 0,
      "alphaMode": "BLEND",
      "doubleSided": true,
      "pbrMetallicRoughness": {
        "baseColorFactor": [
          1,
          1,
          1,
          0
        ]
      }
    },
    {
      "alphaCutoff": 0,
      "alphaMode": "BLEND",
      "doubleSided": true,
      "pbrMetallicRoughness": {
        "baseColorFactor": [
          0.09411765,
          0.62352943,
          0.28235295,
          0.54901963
        ]
      }
    },
    {
      "alphaCutoff": 0,
      "alphaMode": "BLEND",
      "doubleSided": true,
      "pbrMetallicRoughness": {
        "baseColorFactor": [
          0.75686276,
          0.7647059,
          0.7764706,
          1
        ]
      }
    },
    {
      "alphaCutoff": 0,
      "alphaMode": "BLEND",
      "doubleSided": true,
      "pbrMetallicRoughness": {
        "baseColorFactor": [
          0.09411765,
          0.62352943,
          0.28235295,
          1
        ]
      }
    },
    {
      "alphaCutoff": 0,
      "alphaMode": "BLEND",
      "doubleSided": true,
      "pbrMetallicRoughness": {
        "baseColorFactor": [
          0.7137255,
          0.81960785,
          0.4117647,
          1
        ]
      }
    },
    {
      "alphaCutoff": 0,
      "alphaMode": "BLEND",
      "doubleSided": true,
      "pbrMetallicRoughness": {
        "baseColorFactor": [
          0.59607846,
          0.3137255,
          0.27058825,
          1
        ]
      }
    },
    {
      "alphaCutoff": 0,
      "alphaMode": "BLEND",
      "doubleSided": true,
      "pbrMetallicRoughness": {
        "baseColorFactor": [
          1,
          0.9411765,
          0,
          1
        ]
      }
    },
    {
      "alphaCutoff": 0,
      "alphaMode": "BLEND",
      "doubleSided": true,
      "pbrMetallicRoughness": {
        "baseColorFactor": [
          1,
          0.8627451,
          0,
          1
        ]
      }
    },
    {
      "alphaCutoff": 0,
      "alphaMode": "BLEND",
      "doubleSided": true,
      "pbrMetallicRoughness": {
        "baseColorFactor": [
          1,
          0.78431374,
          0,
          1
        ]
      }
    },
    {
      "alphaCutoff": 0,
      "alphaMode": "BLEND",
      "doubleSided": true,
      "pbrMetallicRoughness": {
        "baseColorFactor": [
          0.59607846,
          0.3137255,
          0.27058825,
          0.54901963
        ]
      }
    }
  ],
  "meshes": [
    {
      "name": "mesh",
      "primitives": [
        {
          "attributes": {
            "POSITION": 0,
            "NORMAL": 1,
            "_BATCHID": 2
          },
          "indices": 3,
          "material": 0
        },
        {
          "attributes": {
            "POSITION": 4,
            "NORMAL": 5,
            "_BATCHID": 6
          },
          "indices": 7,
          "material": 1
        },
        {
          "attributes": {
            "POSITION": 8,
            "NORMAL": 9,
            "_BATCHID": 10
          },
          "indices": 11,
          "material": 2
        },
        {
          "attributes": {
            "POSITION": 12,
            "NORMAL": 13,
            "_BATCHID": 14
          },
          "indices": 15,
          "material": 3
        },
        {
          "attributes": {
            "POSITION": 16,
            "NORMAL": 17,
            "_BATCHID": 18
          },
          "indices": 19,
          "material": 4
        },
        {
          "attributes": {
            "POSITION": 20,
            "NORMAL": 21,
            "_BATCHID": 22
          },
          "indices": 23,
          "material": 5
        },
        {
          "attributes": {
            "POSITION": 24,
            "NORMAL": 25,
            "_BATCHID": 26
          },
          "indices": 27,
          "material": 6
        },
        {
          "attributes": {
            "POSITION": 28,
            "NORMAL": 29,
            "_BATCHID": 30
          },
          "indices": 31,
          "material": 7
        },
        {
          "attributes": {
            "POSITION": 32,
            "NORMAL": 33,
            "_BATCHID": 34
          },
          "indices": 35,
          "material": 8
        },
        {
          "attributes": {
            "POSITION": 36,
            "NORMAL": 37,
            "_BATCHID": 38
          },
          "indices": 39,
          "material": 9
        }
      ]
    }
  ],
  "nodes": [
    {
      "mesh": 0
    }
  ],
  "scene": 0,
  "scenes": [
    {
      "nodes": [
        0
      ]
    }
  ]
}