{
  "asset": {
    "copyright": "",
    "generator": "SharpGLTF 1.0.0-alpha0015",
    "version": "2.0"
  },
  "accessors": [
    {
      "name": "POSITION",
      "bufferView": 0,
      "byteOffset": 252672,
      "componentType": 5126,
      "count": 96,
      "max": [
        1222.1072998046875,
        -56,
        -410.8186950683594
      ],
      "min": [
        239.9130401611328,
        -56,
        -905.4758911132812
      ],
      "type": "VEC3"
    },
    {
      "name": "NORMAL",
      "bufferView": 0,
      "byteOffset": 252684,
      "componentType": 5126,
      "count": 96,
      "max": [
        5.31940206393304e-19,
        1,
        8.699471737109993e-17
      ],
      "min": [
        2.615479439431552e-19,
        1,
        4.349821895338702e-17
      ],
      "type": "VEC3"
    },
    {
      "name": "_BATCHID",
      "bufferView": 0,
      "byteOffset": 252696,
      "componentType": 5126,
      "count": 96,
      "max": [
        15
      ],
      "min": [
        0
      ],
      "type": "SCALAR"
    },
    {
      "bufferView": 1,
      "byteOffset": 18048,
      "componentType": 5123,
      "count": 96,
      "type": "SCALAR"
    },
    {
      "name": "POSITION",
      "bufferView": 0,
      "byteOffset": 257376,
      "componentType": 5126,
      "count": 24,
      "max": [
        1222.1072998046875,
        -54,
        -414.79150390625
      ],
      "min": [
        893.9570922851562,
        -54,
        -743.76806640625
      ],
      "type": "VEC3"
    },
    {
      "name": "NORMAL",
      "bufferView": 0,
      "byteOffset": 257388,
      "componentType": 5126,
      "count": 24,
      "max": [
        2.624405752216765e-19,
        1,
        4.3499108999726127e-17
      ],
      "min": [
        2.615479439431552e-19,
        1,
        4.349821895338702e-17
      ],
      "type": "VEC3"
    },
    {
      "name": "_BATCHID",
      "bufferView": 0,
      "byteOffset": 257400,
      "componentType": 5126,
      "count": 24,
      "max": [
        3
      ],
      "min": [
        0
      ],
      "type": "SCALAR"
    },
    {
      "bufferView": 1,
      "byteOffset": 18384,
      "componentType": 5123,
      "count": 24,
      "type": "SCALAR"
    },
    {
      "name": "POSITION",
      "bufferView": 0,
      "byteOffset": 241920,
      "componentType": 5126,
      "count": 384,
      "max": [
        1222.1072998046875,
        43,
        -410.8186950683594
      ],
      "min": [
        239.9130401611328,
        36,
        -905.4758911132812
      ],
      "type": "VEC3"
    },
    {
      "name": "NORMAL",
      "bufferView": 0,
      "byteOffset": 241932,
      "componentType": 5126,
      "count": 384,
      "max": [
        0.9999821782112122,
        0,
        0.9999819397926331
      ],
      "min": [
        -0.9999821782112122,
        0,
        -0.9999819397926331
      ],
      "type": "VEC3"
    },
    {
      "name": "_BATCHID",
      "bufferView": 0,
      "byteOffset": 241944,
      "componentType": 5126,
      "count": 384,
      "max": [
        15
      ],
      "min": [
        0
      ],
      "type": "SCALAR"
    },
    {
      "bufferView": 1,
      "byteOffset": 17280,
      "componentType": 5123,
      "count": 384,
      "type": "SCALAR"
    },
    {
      "name": "POSITION",
      "bufferView": 0,
      "byteOffset": 180096,
      "componentType": 5126,
      "count": 912,
      "max": [
        1222.1072998046875,
        38,
        -410.8186950683594
      ],
      "min": [
        239.9130401611328,
        4,
        -905.4758911132812
      ],
      "type": "VEC3"
    },
    {
      "name": "NORMAL",
      "bufferView": 0,
      "byteOffset": 180108,
      "componentType": 5126,
      "count": 912,
      "max": [
        0.9999821782112122,
        0,
        0.9999819397926331
      ],
      "min": [
        -0.9999821782112122,
        0,
        -0.9999819397926331
      ],
      "type": "VEC3"
    },
    {
      "name": "_BATCHID",
      "bufferView": 0,
      "byteOffset": 180120,
      "componentType": 5126,
      "count": 912,
      "max": [
        15
      ],
      "min": [
        0
      ],
      "type": "SCALAR"
    },
    {
      "bufferView": 1,
      "byteOffset": 12864,
      "componentType": 5123,
      "count": 912,
      "type": "SCALAR"
    },
    {
      "name": "POSITION",
      "bufferView": 0,
      "byteOffset": 205632,
      "componentType": 5126,
      "count": 672,
      "max": [
        1222.1072998046875,
        41,
        -410.8186950683594
      ],
      "min": [
        239.9130401611328,
        26,
        -905.4758911132812
      ],
      "type": "VEC3"
    },
    {
      "name": "NORMAL",
      "bufferView": 0,
      "byteOffset": 205644,
      "componentType": 5126,
      "count": 672,
      "max": [
        0.9999821782112122,
        0,
        0.9999819397926331
      ],
      "min": [
        -0.9999821782112122,
        0,
        -0.9999819397926331
      ],
      "type": "VEC3"
    },
    {
      "name": "_BATCHID",
      "bufferView": 0,
      "byteOffset": 205656,
      "componentType": 5126,
      "count": 672,
      "max": [
        15
      ],
      "min": [
        0
      ],
      "type": "SCALAR"
    },
    {
      "bufferView": 1,
      "byteOffset": 14688,
      "componentType": 5123,
      "count": 672,
      "type": "SCALAR"
    },
    {
      "name": "POSITION",
      "bufferView": 0,
      "componentType": 5126,
      "count": 2448,
      "max": [
        1222.1072998046875,
        27,
        -410.8186950683594
      ],
      "min": [
        239.9130401611328,
        -56,
        -905.4758911132812
      ],
      "type": "VEC3"
    },
    {
      "name": "NORMAL",
      "bufferView": 0,
      "byteOffset": 12,
      "componentType": 5126,
      "count": 2448,
      "max": [
        0.9999821782112122,
        0,
        0.9999819397926331
      ],
      "min": [
        -0.9999821782112122,
        0,
        -0.9999819397926331
      ],
      "type": "VEC3"
    },
    {
      "name": "_BATCHID",
      "bufferView": 0,
      "byteOffset": 24,
      "componentType": 5126,
      "count": 2448,
      "max": [
        15
      ],
      "min": [
        0
      ],
      "type": "SCALAR"
    },
    {
      "bufferView": 1,
      "componentType": 5123,
      "count": 2448,
      "type": "SCALAR"
    },
    {
      "name": "POSITION",
      "bufferView": 0,
      "byteOffset": 224448,
      "componentType": 5126,
      "count": 624,
      "max": [
        1222.1072998046875,
        24,
        -410.8186950683594
      ],
      "min": [
        239.9130401611328,
        -55,
        -905.4758911132812
      ],
      "type": "VEC3"
    },
    {
      "name": "NORMAL",
      "bufferView": 0,
      "byteOffset": 224460,
      "componentType": 5126,
      "count": 624,
      "max": [
        0.9999821782112122,
        0,
        0.9999819397926331
      ],
      "min": [
        -0.9999821782112122,
        0,
        -0.9999819397926331
      ],
      "type": "VEC3"
    },
    {
      "name": "_BATCHID",
      "bufferView": 0,
      "byteOffset": 224472,
      "componentType": 5126,
      "count": 624,
      "max": [
        15
      ],
      "min": [
        0
      ],
      "type": "SCALAR"
    },
    {
      "bufferView": 1,
      "byteOffset": 16032,
      "componentType": 5123,
      "count": 624,
      "type": "SCALAR"
    },
    {
      "name": "POSITION",
      "bufferView": 0,
      "byteOffset": 128352,
      "componentType": 5126,
      "count": 1848,
      "max": [
        1222.1072998046875,
        18,
        -410.8186950683594
      ],
      "min": [
        239.9130401611328,
        -56,
        -905.4758911132812
      ],
      "type": "VEC3"
    },
    {
      "name": "NORMAL",
      "bufferView": 0,
      "byteOffset": 128364,
      "componentType": 5126,
      "count": 1848,
      "max": [
        0.9999821782112122,
        0,
        0.9999819397926331
      ],
      "min": [
        -0.9999821782112122,
        0,
        -0.9999819397926331
      ],
      "type": "VEC3"
    },
    {
      "name": "_BATCHID",
      "bufferView": 0,
      "byteOffset": 128376,
      "componentType": 5126,
      "count": 1848,
      "max": [
        15
      ],
      "min": [
        0
      ],
      "type": "SCALAR"
    },
    {
      "bufferView": 1,
      "byteOffset": 9168,
      "componentType": 5123,
      "count": 1848,
      "type": "SCALAR"
    },
    {
      "name": "POSITION",
      "bufferView": 0,
      "byteOffset": 68544,
      "componentType": 5126,
      "count": 2136,
      "max": [
        1222.1072998046875,
        10,
        -410.8186950683594
      ],
      "min": [
        239.9130401611328,
        -56,
        -905.4758911132812
      ],
      "type": "VEC3"
    },
    {
      "name": "NORMAL",
      "bufferView": 0,
      "byteOffset": 68556,
      "componentType": 5126,
      "count": 2136,
      "max": [
        0.9999821782112122,
        0,
        0.9999819397926331
      ],
      "min": [
        -0.9999821782112122,
        0,
        -0.9999819397926331
      ],
      "type": "VEC3"
    },
    {
      "name": "_BATCHID",
      "bufferView": 0,
      "byteOffset": 68568,
      "componentType": 5126,
      "count": 2136,
      "max": [
        15
      ],
      "min": [
        0
      ],
      "type": "SCALAR"
    },
    {
      "bufferView": 1,
      "byteOffset": 4896,
      "componentType": 5123,
      "count": 2136,
      "type": "SCALAR"
    },
    {
      "name": "POSITION",
      "bufferView": 0,
      "byteOffset": 255360,
      "componentType": 5126,
      "count": 72,
      "max": [
        895.596923828125,
        -54,
        -410.8186950683594
      ],
      "min": [
        239.9130401611328,
        -54,
        -905.4758911132812
      ],
      "type": "VEC3"
    },
    {
      "name": "NORMAL",
      "bufferView": 0,
      "byteOffset": 255372,
      "componentType": 5126,
      "count": 72,
      "max": [
        5.31940206393304e-19,
        1,
        8.699471737109993e-17
      ],
      "min": [
        2.6331208754518354e-19,
        1,
        4.349822226210947e-17
      ],
      "type": "VEC3"
    },
    {
      "name": "_BATCHID",
      "bufferView": 0,
      "byteOffset": 255384,
      "componentType": 5126,
      "count": 72,
      "max": [
        15
      ],
      "min": [
        4
      ],
      "type": "SCALAR"
    },
    {
      "bufferView": 1,
      "byteOffset": 18240,
      "componentType": 5123,
      "count": 72,
      "type": "SCALAR"
    }
  ],
  "bufferViews": [
    {
      "buffer": 0,
      "byteLength": 258048,
      "byteStride": 28,
      "target": 34962,
      "byteOffset": 0
    },
    {
      "buffer": 0,
      "byteLength": 18432,
      "byteOffset": 258048,
      "target": 34963
    }
  ],
  "buffers": [
    {
      "uri": "15_data.bin",
      "byteLength": 276480
    }
  ],
  "materials": [
    {
      "alphaCutoff": 0,
      "alphaMode": "BLEND",
      "doubleSided": true,
      "pbrMetallicRoughness": {
        "baseColorFactor": [
          1,
          1,
          1,
          0
        ]
      }
    },
    {
      "alphaCutoff": 0,
      "alphaMode": "BLEND",
      "doubleSided": true,
      "pbrMetallicRoughness": {
        "baseColorFactor": [
          0.09411765,
          0.62352943,
          0.28235295,
          0.54901963
        ]
      }
    },
    {
      "alphaCutoff": 0,
      "alphaMode": "BLEND",
      "doubleSided": true,
      "pbrMetallicRoughness": {
        "baseColorFactor": [
          0.75686276,
          0.7647059,
          0.7764706,
          1
        ]
      }
    },
    {
      "alphaCutoff": 0,
      "alphaMode": "BLEND",
      "doubleSided": true,
      "pbrMetallicRoughness": {
        "baseColorFactor": [
          0.09411765,
          0.62352943,
          0.28235295,
          1
        ]
      }
    },
    {
      "alphaCutoff": 0,
      "alphaMode": "BLEND",
      "doubleSided": true,
      "pbrMetallicRoughness": {
        "baseColorFactor": [
          0.59607846,
          0.3137255,
          0.27058825,
          1
        ]
      }
    },
    {
      "alphaCutoff": 0,
      "alphaMode": "BLEND",
      "doubleSided": true,
      "pbrMetallicRoughness": {
        "baseColorFactor": [
          1,
          0.9411765,
          0,
          1
        ]
      }
    },
    {
      "alphaCutoff": 0,
      "alphaMode": "BLEND",
      "doubleSided": true,
      "pbrMetallicRoughness": {
        "baseColorFactor": [
          0.7137255,
          0.81960785,
          0.4117647,
          1
        ]
      }
    },
    {
      "alphaCutoff": 0,
      "alphaMode": "BLEND",
      "doubleSided": true,
      "pbrMetallicRoughness": {
        "baseColorFactor": [
          1,
          0.78431374,
          0,
          1
        ]
      }
    },
    {
      "alphaCutoff": 0,
      "alphaMode": "BLEND",
      "doubleSided": true,
      "pbrMetallicRoughness": {
        "baseColorFactor": [
          1,
          0.8627451,
          0,
          1
        ]
      }
    },
    {
      "alphaCutoff": 0,
      "alphaMode": "BLEND",
      "doubleSided": true,
      "pbrMetallicRoughness": {
        "baseColorFactor": [
          0.59607846,
          0.3137255,
          0.27058825,
          0.54901963
        ]
      }
    }
  ],
  "meshes": [
    {
      "name": "mesh",
      "primitives": [
        {
          "attributes": {
            "POSITION": 0,
            "NORMAL": 1,
            "_BATCHID": 2
          },
          "indices": 3,
          "material": 0
        },
        {
          "attributes": {
            "POSITION": 4,
            "NORMAL": 5,
            "_BATCHID": 6
          },
          "indices": 7,
          "material": 1
        },
        {
          "attributes": {
            "POSITION": 8,
            "NORMAL": 9,
            "_BATCHID": 10
          },
          "indices": 11,
          "material": 2
        },
        {
          "attributes": {
            "POSITION": 12,
            "NORMAL": 13,
            "_BATCHID": 14
          },
          "indices": 15,
          "material": 3
        },
        {
          "attributes": {
            "POSITION": 16,
            "NORMAL": 17,
            "_BATCHID": 18
          },
          "indices": 19,
          "material": 4
        },
        {
          "attributes": {
            "POSITION": 20,
            "NORMAL": 21,
            "_BATCHID": 22
          },
          "indices": 23,
          "material": 5
        },
        {
          "attributes": {
            "POSITION": 24,
            "NORMAL": 25,
            "_BATCHID": 26
          },
          "indices": 27,
          "material": 6
        },
        {
          "attributes": {
            "POSITION": 28,
            "NORMAL": 29,
            "_BATCHID": 30
          },
          "indices": 31,
          "material": 7
        },
        {
          "attributes": {
            "POSITION": 32,
            "NORMAL": 33,
            "_BATCHID": 34
          },
          "indices": 35,
          "material": 8
        },
        {
          "attributes": {
            "POSITION": 36,
            "NORMAL": 37,
            "_BATCHID": 38
          },
          "indices": 39,
          "material": 9
        }
      ]
    }
  ],
  "nodes": [
    {
      "mesh": 0
    }
  ],
  "scene": 0,
  "scenes": [
    {
      "nodes": [
        0
      ]
    }
  ]
}