{
  "asset": {
    "copyright": "",
    "generator": "SharpGLTF 1.0.0-alpha0015",
    "version": "2.0"
  },
  "accessors": [
    {
      "name": "POSITION",
      "bufferView": 0,
      "byteOffset": 94752,
      "componentType": 5126,
      "count": 36,
      "max": [
        1711.873291015625,
        -56,
        -416.7580261230469
      ],
      "min": [
        1220.480712890625,
        -56,
        -746.6932983398438
      ],
      "type": "VEC3"
    },
    {
      "name": "NORMAL",
      "bufferView": 0,
      "byteOffset": 94764,
      "componentType": 5126,
      "count": 36,
      "max": [
        2.6067653501722474e-19,
        1,
        4.3499105691003677e-17
      ],
      "min": [
        2.588997252120667e-19,
        1,
        4.349821233594212e-17
      ],
      "type": "VEC3"
    },
    {
      "name": "_BATCHID",
      "bufferView": 0,
      "byteOffset": 94776,
      "componentType": 5126,
      "count": 36,
      "max": [
        5
      ],
      "min": [
        0
      ],
      "type": "SCALAR"
    },
    {
      "bufferView": 1,
      "byteOffset": 6768,
      "componentType": 5123,
      "count": 36,
      "type": "SCALAR"
    },
    {
      "name": "POSITION",
      "bufferView": 0,
      "byteOffset": 95760,
      "componentType": 5126,
      "count": 36,
      "max": [
        1711.873291015625,
        -54,
        -416.7580261230469
      ],
      "min": [
        1220.480712890625,
        -54,
        -746.6932983398438
      ],
      "type": "VEC3"
    },
    {
      "name": "NORMAL",
      "bufferView": 0,
      "byteOffset": 95772,
      "componentType": 5126,
      "count": 36,
      "max": [
        2.6067653501722474e-19,
        1,
        4.3499105691003677e-17
      ],
      "min": [
        2.588997252120667e-19,
        1,
        4.349821233594212e-17
      ],
      "type": "VEC3"
    },
    {
      "name": "_BATCHID",
      "bufferView": 0,
      "byteOffset": 95784,
      "componentType": 5126,
      "count": 36,
      "max": [
        5
      ],
      "min": [
        0
      ],
      "type": "SCALAR"
    },
    {
      "bufferView": 1,
      "byteOffset": 6840,
      "componentType": 5123,
      "count": 36,
      "type": "SCALAR"
    },
    {
      "name": "POSITION",
      "bufferView": 0,
      "byteOffset": 84000,
      "componentType": 5126,
      "count": 144,
      "max": [
        1711.873291015625,
        39,
        -416.7580261230469
      ],
      "min": [
        1220.480712890625,
        35,
        -746.6932983398438
      ],
      "type": "VEC3"
    },
    {
      "name": "NORMAL",
      "bufferView": 0,
      "byteOffset": 84012,
      "componentType": 5126,
      "count": 144,
      "max": [
        0.9999825358390808,
        0,
        0.9999822974205017
      ],
      "min": [
        -0.9999825358390808,
        0,
        -0.9999822974205017
      ],
      "type": "VEC3"
    },
    {
      "name": "_BATCHID",
      "bufferView": 0,
      "byteOffset": 84024,
      "componentType": 5126,
      "count": 144,
      "max": [
        5
      ],
      "min": [
        0
      ],
      "type": "SCALAR"
    },
    {
      "bufferView": 1,
      "byteOffset": 6000,
      "componentType": 5123,
      "count": 144,
      "type": "SCALAR"
    },
    {
      "name": "POSITION",
      "bufferView": 0,
      "byteOffset": 73248,
      "componentType": 5126,
      "count": 384,
      "max": [
        1711.873291015625,
        36,
        -416.7580261230469
      ],
      "min": [
        1220.480712890625,
        5,
        -746.6932983398438
      ],
      "type": "VEC3"
    },
    {
      "name": "NORMAL",
      "bufferView": 0,
      "byteOffset": 73260,
      "componentType": 5126,
      "count": 384,
      "max": [
        0.9999825358390808,
        0,
        0.9999823570251465
      ],
      "min": [
        -0.9999825358390808,
        0,
        -0.9999823570251465
      ],
      "type": "VEC3"
    },
    {
      "name": "_BATCHID",
      "bufferView": 0,
      "byteOffset": 73272,
      "componentType": 5126,
      "count": 384,
      "max": [
        5
      ],
      "min": [
        0
      ],
      "type": "SCALAR"
    },
    {
      "bufferView": 1,
      "byteOffset": 5232,
      "componentType": 5123,
      "count": 384,
      "type": "SCALAR"
    },
    {
      "name": "POSITION",
      "bufferView": 0,
      "byteOffset": 28896,
      "componentType": 5126,
      "count": 840,
      "max": [
        1711.873291015625,
        27,
        -416.7580261230469
      ],
      "min": [
        1220.480712890625,
        -56,
        -746.6932983398438
      ],
      "type": "VEC3"
    },
    {
      "name": "NORMAL",
      "bufferView": 0,
      "byteOffset": 28908,
      "componentType": 5126,
      "count": 840,
      "max": [
        0.9999825358390808,
        0,
        0.9999823570251465
      ],
      "min": [
        -0.9999825358390808,
        0,
        -0.9999823570251465
      ],
      "type": "VEC3"
    },
    {
      "name": "_BATCHID",
      "bufferView": 0,
      "byteOffset": 28920,
      "componentType": 5126,
      "count": 840,
      "max": [
        5
      ],
      "min": [
        0
      ],
      "type": "SCALAR"
    },
    {
      "bufferView": 1,
      "byteOffset": 2064,
      "componentType": 5123,
      "count": 840,
      "type": "SCALAR"
    },
    {
      "name": "POSITION",
      "bufferView": 0,
      "byteOffset": 88032,
      "componentType": 5126,
      "count": 144,
      "max": [
        1711.873291015625,
        21,
        -416.7580261230469
      ],
      "min": [
        1220.480712890625,
        17,
        -746.6932983398438
      ],
      "type": "VEC3"
    },
    {
      "name": "NORMAL",
      "bufferView": 0,
      "byteOffset": 88044,
      "componentType": 5126,
      "count": 144,
      "max": [
        0.9999825358390808,
        0,
        0.9999822974205017
      ],
      "min": [
        -0.9999825358390808,
        0,
        -0.9999822974205017
      ],
      "type": "VEC3"
    },
    {
      "name": "_BATCHID",
      "bufferView": 0,
      "byteOffset": 88056,
      "componentType": 5126,
      "count": 144,
      "max": [
        5
      ],
      "min": [
        0
      ],
      "type": "SCALAR"
    },
    {
      "bufferView": 1,
      "byteOffset": 6288,
      "componentType": 5123,
      "count": 144,
      "type": "SCALAR"
    },
    {
      "name": "POSITION",
      "bufferView": 0,
      "byteOffset": 52416,
      "componentType": 5126,
      "count": 744,
      "max": [
        1711.873291015625,
        16,
        -416.7580261230469
      ],
      "min": [
        1220.480712890625,
        -52,
        -746.6932983398438
      ],
      "type": "VEC3"
    },
    {
      "name": "NORMAL",
      "bufferView": 0,
      "byteOffset": 52428,
      "componentType": 5126,
      "count": 744,
      "max": [
        0.9999825358390808,
        0,
        0.9999822974205017
      ],
      "min": [
        -0.9999825358390808,
        0,
        -0.9999822974205017
      ],
      "type": "VEC3"
    },
    {
      "name": "_BATCHID",
      "bufferView": 0,
      "byteOffset": 52440,
      "componentType": 5126,
      "count": 744,
      "max": [
        5
      ],
      "min": [
        0
      ],
      "type": "SCALAR"
    },
    {
      "bufferView": 1,
      "byteOffset": 3744,
      "componentType": 5123,
      "count": 744,
      "type": "SCALAR"
    },
    {
      "name": "POSITION",
      "bufferView": 0,
      "componentType": 5126,
      "count": 1032,
      "max": [
        1711.873291015625,
        20,
        -416.7580261230469
      ],
      "min": [
        1220.480712890625,
        -56,
        -746.6932983398438
      ],
      "type": "VEC3"
    },
    {
      "name": "NORMAL",
      "bufferView": 0,
      "byteOffset": 12,
      "componentType": 5126,
      "count": 1032,
      "max": [
        0.9999825358390808,
        0,
        0.9999823570251465
      ],
      "min": [
        -0.9999825358390808,
        0,
        -0.9999823570251465
      ],
      "type": "VEC3"
    },
    {
      "name": "_BATCHID",
      "bufferView": 0,
      "byteOffset": 24,
      "componentType": 5126,
      "count": 1032,
      "max": [
        5
      ],
      "min": [
        0
      ],
      "type": "SCALAR"
    },
    {
      "bufferView": 1,
      "componentType": 5123,
      "count": 1032,
      "type": "SCALAR"
    },
    {
      "name": "POSITION",
      "bufferView": 0,
      "byteOffset": 92064,
      "componentType": 5126,
      "count": 96,
      "max": [
        1711.873291015625,
        28,
        -416.7580261230469
      ],
      "min": [
        1220.480712890625,
        27,
        -744.7464599609375
      ],
      "type": "VEC3"
    },
    {
      "name": "NORMAL",
      "bufferView": 0,
      "byteOffset": 92076,
      "componentType": 5126,
      "count": 96,
      "max": [
        0.9999825358390808,
        0,
        0.9999822974205017
      ],
      "min": [
        -0.9999825358390808,
        0,
        -0.9999822974205017
      ],
      "type": "VEC3"
    },
    {
      "name": "_BATCHID",
      "bufferView": 0,
      "byteOffset": 92088,
      "componentType": 5126,
      "count": 96,
      "max": [
        5
      ],
      "min": [
        1
      ],
      "type": "SCALAR"
    },
    {
      "bufferView": 1,
      "byteOffset": 6576,
      "componentType": 5123,
      "count": 96,
      "type": "SCALAR"
    }
  ],
  "bufferViews": [
    {
      "buffer": 0,
      "byteLength": 96768,
      "byteStride": 28,
      "target": 34962,
      "byteOffset": 0
    },
    {
      "buffer": 0,
      "byteLength": 6912,
      "byteOffset": 96768,
      "target": 34963
    }
  ],
  "buffers": [
    {
      "uri": "16_data.bin",
      "byteLength": 103680
    }
  ],
  "materials": [
    {
      "alphaCutoff": 0,
      "alphaMode": "BLEND",
      "doubleSided": true,
      "pbrMetallicRoughness": {
        "baseColorFactor": [
          1,
          1,
          1,
          0
        ]
      }
    },
    {
      "alphaCutoff": 0,
      "alphaMode": "BLEND",
      "doubleSided": true,
      "pbrMetallicRoughness": {
        "baseColorFactor": [
          0.09411765,
          0.62352943,
          0.28235295,
          0.54901963
        ]
      }
    },
    {
      "alphaCutoff": 0,
      "alphaMode": "BLEND",
      "doubleSided": true,
      "pbrMetallicRoughness": {
        "baseColorFactor": [
          0.75686276,
          0.7647059,
          0.7764706,
          1
        ]
      }
    },
    {
      "alphaCutoff": 0,
      "alphaMode": "BLEND",
      "doubleSided": true,
      "pbrMetallicRoughness": {
        "baseColorFactor": [
          0.09411765,
          0.62352943,
          0.28235295,
          1
        ]
      }
    },
    {
      "alphaCutoff": 0,
      "alphaMode": "BLEND",
      "doubleSided": true,
      "pbrMetallicRoughness": {
        "baseColorFactor": [
          1,
          0.9411765,
          0,
          1
        ]
      }
    },
    {
      "alphaCutoff": 0,
      "alphaMode": "BLEND",
      "doubleSided": true,
      "pbrMetallicRoughness": {
        "baseColorFactor": [
          0.7137255,
          0.81960785,
          0.4117647,
          1
        ]
      }
    },
    {
      "alphaCutoff": 0,
      "alphaMode": "BLEND",
      "doubleSided": true,
      "pbrMetallicRoughness": {
        "baseColorFactor": [
          1,
          0.78431374,
          0,
          1
        ]
      }
    },
    {
      "alphaCutoff": 0,
      "alphaMode": "BLEND",
      "doubleSided": true,
      "pbrMetallicRoughness": {
        "baseColorFactor": [
          1,
          0.8627451,
          0,
          1
        ]
      }
    },
    {
      "alphaCutoff": 0,
      "alphaMode": "BLEND",
      "doubleSided": true,
      "pbrMetallicRoughness": {
        "baseColorFactor": [
          0.59607846,
          0.3137255,
          0.27058825,
          1
        ]
      }
    }
  ],
  "meshes": [
    {
      "name": "mesh",
      "primitives": [
        {
          "attributes": {
            "POSITION": 0,
            "NORMAL": 1,
            "_BATCHID": 2
          },
          "indices": 3,
          "material": 0
        },
        {
          "attributes": {
            "POSITION": 4,
            "NORMAL": 5,
            "_BATCHID": 6
          },
          "indices": 7,
          "material": 1
        },
        {
          "attributes": {
            "POSITION": 8,
            "NORMAL": 9,
            "_BATCHID": 10
          },
          "indices": 11,
          "material": 2
        },
        {
          "attributes": {
            "POSITION": 12,
            "NORMAL": 13,
            "_BATCHID": 14
          },
          "indices": 15,
          "material": 3
        },
        {
          "attributes": {
            "POSITION": 16,
            "NORMAL": 17,
            "_BATCHID": 18
          },
          "indices": 19,
          "material": 4
        },
        {
          "attributes": {
            "POSITION": 20,
            "NORMAL": 21,
            "_BATCHID": 22
          },
          "indices": 23,
          "material": 5
        },
        {
          "attributes": {
            "POSITION": 24,
            "NORMAL": 25,
            "_BATCHID": 26
          },
          "indices": 27,
          "material": 6
        },
        {
          "attributes": {
            "POSITION": 28,
            "NORMAL": 29,
            "_BATCHID": 30
          },
          "indices": 31,
          "material": 7
        },
        {
          "attributes": {
            "POSITION": 32,
            "NORMAL": 33,
            "_BATCHID": 34
          },
          "indices": 35,
          "material": 8
        }
      ]
    }
  ],
  "nodes": [
    {
      "mesh": 0
    }
  ],
  "scene": 0,
  "scenes": [
    {
      "nodes": [
        0
      ]
    }
  ]
}