{
  "asset": {
    "copyright": "",
    "generator": "SharpGLTF 1.0.0-alpha0015",
    "version": "2.0"
  },
  "accessors": [
    {
      "name": "POSITION",
      "bufferView": 0,
      "byteOffset": 633024,
      "componentType": 5126,
      "count": 252,
      "max": [
        -723.7334594726562,
        -56,
        1728.791259765625
      ],
      "min": [
        -1709.9300537109375,
        -56,
        577.5048217773438
      ],
      "type": "VEC3"
    },
    {
      "name": "NORMAL",
      "bufferView": 0,
      "byteOffset": 633036,
      "componentType": 5126,
      "count": 252,
      "max": [
        5.530947818726765e-19,
        1,
        8.702103494946892e-17
      ],
      "min": [
        2.721179163042992e-19,
        1,
        4.350524006242637e-17
      ],
      "type": "VEC3"
    },
    {
      "name": "_BATCHID",
      "bufferView": 0,
      "byteOffset": 633048,
      "componentType": 5126,
      "count": 252,
      "max": [
        41
      ],
      "min": [
        0
      ],
      "type": "SCALAR"
    },
    {
      "bufferView": 1,
      "byteOffset": 45216,
      "componentType": 5123,
      "count": 252,
      "type": "SCALAR"
    },
    {
      "name": "POSITION",
      "bufferView": 0,
      "byteOffset": 640080,
      "componentType": 5126,
      "count": 240,
      "max": [
        -723.7334594726562,
        -54,
        1728.791259765625
      ],
      "min": [
        -1709.9300537109375,
        -54,
        577.5048217773438
      ],
      "type": "VEC3"
    },
    {
      "name": "NORMAL",
      "bufferView": 0,
      "byteOffset": 640092,
      "componentType": 5126,
      "count": 240,
      "max": [
        5.530824258622765e-19,
        1,
        8.702103494946892e-17
      ],
      "min": [
        2.721179163042992e-19,
        1,
        4.350524006242637e-17
      ],
      "type": "VEC3"
    },
    {
      "name": "_BATCHID",
      "bufferView": 0,
      "byteOffset": 640104,
      "componentType": 5126,
      "count": 240,
      "max": [
        41
      ],
      "min": [
        0
      ],
      "type": "SCALAR"
    },
    {
      "bufferView": 1,
      "byteOffset": 45720,
      "componentType": 5123,
      "count": 240,
      "type": "SCALAR"
    },
    {
      "name": "POSITION",
      "bufferView": 0,
      "byteOffset": 607488,
      "componentType": 5126,
      "count": 912,
      "max": [
        -723.7334594726562,
        42,
        1726.719970703125
      ],
      "min": [
        -1709.9300537109375,
        32,
        577.5048217773438
      ],
      "type": "VEC3"
    },
    {
      "name": "NORMAL",
      "bufferView": 0,
      "byteOffset": 607500,
      "componentType": 5126,
      "count": 912,
      "max": [
        0.9999806880950928,
        0,
        0.9999805092811584
      ],
      "min": [
        -0.9999806880950928,
        0,
        -0.9999805092811584
      ],
      "type": "VEC3"
    },
    {
      "name": "_BATCHID",
      "bufferView": 0,
      "byteOffset": 607512,
      "componentType": 5126,
      "count": 912,
      "max": [
        39
      ],
      "min": [
        0
      ],
      "type": "SCALAR"
    },
    {
      "bufferView": 1,
      "byteOffset": 43392,
      "componentType": 5123,
      "count": 912,
      "type": "SCALAR"
    },
    {
      "name": "POSITION",
      "bufferView": 0,
      "byteOffset": 510048,
      "componentType": 5126,
      "count": 2424,
      "max": [
        -723.7334594726562,
        40,
        1728.791259765625
      ],
      "min": [
        -1709.9300537109375,
        -54,
        577.5048217773438
      ],
      "type": "VEC3"
    },
    {
      "name": "NORMAL",
      "bufferView": 0,
      "byteOffset": 510060,
      "componentType": 5126,
      "count": 2424,
      "max": [
        0.9999807476997375,
        0,
        0.9999805092811584
      ],
      "min": [
        -0.9999807476997375,
        0,
        -0.9999805092811584
      ],
      "type": "VEC3"
    },
    {
      "name": "_BATCHID",
      "bufferView": 0,
      "byteOffset": 510072,
      "componentType": 5126,
      "count": 2424,
      "max": [
        41
      ],
      "min": [
        0
      ],
      "type": "SCALAR"
    },
    {
      "bufferView": 1,
      "byteOffset": 36432,
      "componentType": 5123,
      "count": 2424,
      "type": "SCALAR"
    },
    {
      "name": "POSITION",
      "bufferView": 0,
      "byteOffset": 577920,
      "componentType": 5126,
      "count": 1056,
      "max": [
        -723.7334594726562,
        28,
        1728.791259765625
      ],
      "min": [
        -1709.9300537109375,
        -46,
        577.5048217773438
      ],
      "type": "VEC3"
    },
    {
      "name": "NORMAL",
      "bufferView": 0,
      "byteOffset": 577932,
      "componentType": 5126,
      "count": 1056,
      "max": [
        0.9999807476997375,
        0,
        0.9999805092811584
      ],
      "min": [
        -0.9999807476997375,
        0,
        -0.9999805092811584
      ],
      "type": "VEC3"
    },
    {
      "name": "_BATCHID",
      "bufferView": 0,
      "byteOffset": 577944,
      "componentType": 5126,
      "count": 1056,
      "max": [
        41
      ],
      "min": [
        0
      ],
      "type": "SCALAR"
    },
    {
      "bufferView": 1,
      "byteOffset": 41280,
      "componentType": 5123,
      "count": 1056,
      "type": "SCALAR"
    },
    {
      "name": "POSITION",
      "bufferView": 0,
      "componentType": 5126,
      "count": 5640,
      "max": [
        -723.7334594726562,
        25,
        1728.791259765625
      ],
      "min": [
        -1709.9300537109375,
        -56,
        577.5048217773438
      ],
      "type": "VEC3"
    },
    {
      "name": "NORMAL",
      "bufferView": 0,
      "byteOffset": 12,
      "componentType": 5126,
      "count": 5640,
      "max": [
        0.9999807476997375,
        0,
        0.9999805092811584
      ],
      "min": [
        -0.9999807476997375,
        0,
        -0.9999805092811584
      ],
      "type": "VEC3"
    },
    {
      "name": "_BATCHID",
      "bufferView": 0,
      "byteOffset": 24,
      "componentType": 5126,
      "count": 5640,
      "max": [
        41
      ],
      "min": [
        0
      ],
      "type": "SCALAR"
    },
    {
      "bufferView": 1,
      "componentType": 5123,
      "count": 5640,
      "type": "SCALAR"
    },
    {
      "name": "POSITION",
      "bufferView": 0,
      "byteOffset": 157920,
      "componentType": 5126,
      "count": 5592,
      "max": [
        -723.7334594726562,
        22,
        1728.791259765625
      ],
      "min": [
        -1709.9300537109375,
        -56,
        577.5048217773438
      ],
      "type": "VEC3"
    },
    {
      "name": "NORMAL",
      "bufferView": 0,
      "byteOffset": 157932,
      "componentType": 5126,
      "count": 5592,
      "max": [
        0.9999807476997375,
        0,
        0.9999805092811584
      ],
      "min": [
        -0.9999807476997375,
        0,
        -0.9999805092811584
      ],
      "type": "VEC3"
    },
    {
      "name": "_BATCHID",
      "bufferView": 0,
      "byteOffset": 157944,
      "componentType": 5126,
      "count": 5592,
      "max": [
        41
      ],
      "min": [
        0
      ],
      "type": "SCALAR"
    },
    {
      "bufferView": 1,
      "byteOffset": 11280,
      "componentType": 5123,
      "count": 5592,
      "type": "SCALAR"
    },
    {
      "name": "POSITION",
      "bufferView": 0,
      "byteOffset": 436800,
      "componentType": 5126,
      "count": 2616,
      "max": [
        -723.7334594726562,
        35,
        1728.791259765625
      ],
      "min": [
        -1709.9300537109375,
        -56,
        577.5048217773438
      ],
      "type": "VEC3"
    },
    {
      "name": "NORMAL",
      "bufferView": 0,
      "byteOffset": 436812,
      "componentType": 5126,
      "count": 2616,
      "max": [
        0.9999807476997375,
        0,
        0.9999805092811584
      ],
      "min": [
        -0.9999807476997375,
        0,
        -0.9999805092811584
      ],
      "type": "VEC3"
    },
    {
      "name": "_BATCHID",
      "bufferView": 0,
      "byteOffset": 436824,
      "componentType": 5126,
      "count": 2616,
      "max": [
        41
      ],
      "min": [
        0
      ],
      "type": "SCALAR"
    },
    {
      "bufferView": 1,
      "byteOffset": 31200,
      "componentType": 5123,
      "count": 2616,
      "type": "SCALAR"
    },
    {
      "name": "POSITION",
      "bufferView": 0,
      "byteOffset": 314496,
      "componentType": 5126,
      "count": 4368,
      "max": [
        -723.7334594726562,
        26,
        1728.791259765625
      ],
      "min": [
        -1708.8934326171875,
        -44,
        577.5048217773438
      ],
      "type": "VEC3"
    },
    {
      "name": "NORMAL",
      "bufferView": 0,
      "byteOffset": 314508,
      "componentType": 5126,
      "count": 4368,
      "max": [
        0.9999807476997375,
        0,
        0.9999805092811584
      ],
      "min": [
        -0.9999807476997375,
        0,
        -0.9999805092811584
      ],
      "type": "VEC3"
    },
    {
      "name": "_BATCHID",
      "bufferView": 0,
      "byteOffset": 314520,
      "componentType": 5126,
      "count": 4368,
      "max": [
        41
      ],
      "min": [
        2
      ],
      "type": "SCALAR"
    },
    {
      "bufferView": 1,
      "byteOffset": 22464,
      "componentType": 5123,
      "count": 4368,
      "type": "SCALAR"
    },
    {
      "name": "POSITION",
      "bufferView": 0,
      "byteOffset": 646800,
      "componentType": 5126,
      "count": 12,
      "max": [
        -1543.9241943359375,
        -54,
        1074.2740478515625
      ],
      "min": [
        -1708.8934326171875,
        -54,
        746.2874755859375
      ],
      "type": "VEC3"
    },
    {
      "name": "NORMAL",
      "bufferView": 0,
      "byteOffset": 646812,
      "componentType": 5126,
      "count": 12,
      "max": [
        5.530947818726765e-19,
        1,
        8.701227345242075e-17
      ],
      "min": [
        2.765356811607918e-19,
        1,
        4.350700692021478e-17
      ],
      "type": "VEC3"
    },
    {
      "name": "_BATCHID",
      "bufferView": 0,
      "byteOffset": 646824,
      "componentType": 5126,
      "count": 12,
      "max": [
        25
      ],
      "min": [
        3
      ],
      "type": "SCALAR"
    },
    {
      "bufferView": 1,
      "byteOffset": 46200,
      "componentType": 5123,
      "count": 12,
      "type": "SCALAR"
    }
  ],
  "bufferViews": [
    {
      "buffer": 0,
      "byteLength": 647136,
      "byteStride": 28,
      "target": 34962,
      "byteOffset": 0
    },
    {
      "buffer": 0,
      "byteLength": 46224,
      "byteOffset": 647136,
      "target": 34963
    }
  ],
  "buffers": [
    {
      "uri": "2_data.bin",
      "byteLength": 693360
    }
  ],
  "materials": [
    {
      "alphaCutoff": 0,
      "alphaMode": "BLEND",
      "doubleSided": true,
      "pbrMetallicRoughness": {
        "baseColorFactor": [
          1,
          1,
          1,
          0
        ]
      }
    },
    {
      "alphaCutoff": 0,
      "alphaMode": "BLEND",
      "doubleSided": true,
      "pbrMetallicRoughness": {
        "baseColorFactor": [
          0.09411765,
          0.62352943,
          0.28235295,
          0.54901963
        ]
      }
    },
    {
      "alphaCutoff": 0,
      "alphaMode": "BLEND",
      "doubleSided": true,
      "pbrMetallicRoughness": {
        "baseColorFactor": [
          0.75686276,
          0.7647059,
          0.7764706,
          1
        ]
      }
    },
    {
      "alphaCutoff": 0,
      "alphaMode": "BLEND",
      "doubleSided": true,
      "pbrMetallicRoughness": {
        "baseColorFactor": [
          0.09411765,
          0.62352943,
          0.28235295,
          1
        ]
      }
    },
    {
      "alphaCutoff": 0,
      "alphaMode": "BLEND",
      "doubleSided": true,
      "pbrMetallicRoughness": {
        "baseColorFactor": [
          0.59607846,
          0.3137255,
          0.27058825,
          1
        ]
      }
    },
    {
      "alphaCutoff": 0,
      "alphaMode": "BLEND",
      "doubleSided": true,
      "pbrMetallicRoughness": {
        "baseColorFactor": [
          1,
          0.8627451,
          0,
          1
        ]
      }
    },
    {
      "alphaCutoff": 0,
      "alphaMode": "BLEND",
      "doubleSided": true,
      "pbrMetallicRoughness": {
        "baseColorFactor": [
          1,
          0.78431374,
          0,
          1
        ]
      }
    },
    {
      "alphaCutoff": 0,
      "alphaMode": "BLEND",
      "doubleSided": true,
      "pbrMetallicRoughness": {
        "baseColorFactor": [
          0.7137255,
          0.81960785,
          0.4117647,
          1
        ]
      }
    },
    {
      "alphaCutoff": 0,
      "alphaMode": "BLEND",
      "doubleSided": true,
      "pbrMetallicRoughness": {
        "baseColorFactor": [
          1,
          0.9411765,
          0,
          1
        ]
      }
    },
    {
      "alphaCutoff": 0,
      "alphaMode": "BLEND",
      "doubleSided": true,
      "pbrMetallicRoughness": {
        "baseColorFactor": [
          0.7137255,
          0.81960785,
          0.4117647,
          0.54901963
        ]
      }
    }
  ],
  "meshes": [
    {
      "name": "mesh",
      "primitives": [
        {
          "attributes": {
            "POSITION": 0,
            "NORMAL": 1,
            "_BATCHID": 2
          },
          "indices": 3,
          "material": 0
        },
        {
          "attributes": {
            "POSITION": 4,
            "NORMAL": 5,
            "_BATCHID": 6
          },
          "indices": 7,
          "material": 1
        },
        {
          "attributes": {
            "POSITION": 8,
            "NORMAL": 9,
            "_BATCHID": 10
          },
          "indices": 11,
          "material": 2
        },
        {
          "attributes": {
            "POSITION": 12,
            "NORMAL": 13,
            "_BATCHID": 14
          },
          "indices": 15,
          "material": 3
        },
        {
          "attributes": {
            "POSITION": 16,
            "NORMAL": 17,
            "_BATCHID": 18
          },
          "indices": 19,
          "material": 4
        },
        {
          "attributes": {
            "POSITION": 20,
            "NORMAL": 21,
            "_BATCHID": 22
          },
          "indices": 23,
          "material": 5
        },
        {
          "attributes": {
            "POSITION": 24,
            "NORMAL": 25,
            "_BATCHID": 26
          },
          "indices": 27,
          "material": 6
        },
        {
          "attributes": {
            "POSITION": 28,
            "NORMAL": 29,
            "_BATCHID": 30
          },
          "indices": 31,
          "material": 7
        },
        {
          "attributes": {
            "POSITION": 32,
            "NORMAL": 33,
            "_BATCHID": 34
          },
          "indices": 35,
          "material": 8
        },
        {
          "attributes": {
            "POSITION": 36,
            "NORMAL": 37,
            "_BATCHID": 38
          },
          "indices": 39,
          "material": 9
        }
      ]
    }
  ],
  "nodes": [
    {
      "mesh": 0
    }
  ],
  "scene": 0,
  "scenes": [
    {
      "nodes": [
        0
      ]
    }
  ]
}