{
  "asset": {
    "copyright": "",
    "generator": "SharpGLTF 1.0.0-alpha0015",
    "version": "2.0"
  },
  "accessors": [
    {
      "name": "POSITION",
      "bufferView": 0,
      "byteOffset": 685440,
      "componentType": 5126,
      "count": 252,
      "max": [
        255.5379180908203,
        -56,
        1722.6171875
      ],
      "min": [
        -730.5217895507812,
        -56,
        571.4479370117188
      ],
      "type": "VEC3"
    },
    {
      "name": "NORMAL",
      "bufferView": 0,
      "byteOffset": 685452,
      "componentType": 5126,
      "count": 252,
      "max": [
        5.424985465270839e-19,
        1,
        8.702100847968931e-17
      ],
      "min": [
        2.668243739742661e-19,
        1,
        4.350523344498147e-17
      ],
      "type": "VEC3"
    },
    {
      "name": "_BATCHID",
      "bufferView": 0,
      "byteOffset": 685464,
      "componentType": 5126,
      "count": 252,
      "max": [
        41
      ],
      "min": [
        0
      ],
      "type": "SCALAR"
    },
    {
      "bufferView": 1,
      "byteOffset": 48960,
      "componentType": 5123,
      "count": 252,
      "type": "SCALAR"
    },
    {
      "name": "POSITION",
      "bufferView": 0,
      "byteOffset": 692496,
      "componentType": 5126,
      "count": 240,
      "max": [
        255.5379180908203,
        -54,
        1722.6171875
      ],
      "min": [
        -730.5217895507812,
        -54,
        571.4479370117188
      ],
      "type": "VEC3"
    },
    {
      "name": "NORMAL",
      "bufferView": 0,
      "byteOffset": 692508,
      "componentType": 5126,
      "count": 240,
      "max": [
        5.424985465270839e-19,
        1,
        8.702100847968931e-17
      ],
      "min": [
        2.668243739742661e-19,
        1,
        4.350523344498147e-17
      ],
      "type": "VEC3"
    },
    {
      "name": "_BATCHID",
      "bufferView": 0,
      "byteOffset": 692520,
      "componentType": 5126,
      "count": 240,
      "max": [
        41
      ],
      "min": [
        0
      ],
      "type": "SCALAR"
    },
    {
      "bufferView": 1,
      "byteOffset": 49464,
      "componentType": 5123,
      "count": 240,
      "type": "SCALAR"
    },
    {
      "name": "POSITION",
      "bufferView": 0,
      "byteOffset": 657216,
      "componentType": 5126,
      "count": 1008,
      "max": [
        255.5379180908203,
        38,
        1722.6171875
      ],
      "min": [
        -730.5217895507812,
        34,
        571.4479370117188
      ],
      "type": "VEC3"
    },
    {
      "name": "NORMAL",
      "bufferView": 0,
      "byteOffset": 657228,
      "componentType": 5126,
      "count": 1008,
      "max": [
        0.9999815225601196,
        0,
        0.9999812245368958
      ],
      "min": [
        -0.9999815225601196,
        0,
        -0.9999812245368958
      ],
      "type": "VEC3"
    },
    {
      "name": "_BATCHID",
      "bufferView": 0,
      "byteOffset": 657240,
      "componentType": 5126,
      "count": 1008,
      "max": [
        41
      ],
      "min": [
        0
      ],
      "type": "SCALAR"
    },
    {
      "bufferView": 1,
      "byteOffset": 46944,
      "componentType": 5123,
      "count": 1008,
      "type": "SCALAR"
    },
    {
      "name": "POSITION",
      "bufferView": 0,
      "byteOffset": 557088,
      "componentType": 5126,
      "count": 2328,
      "max": [
        255.5379180908203,
        36,
        1722.6171875
      ],
      "min": [
        -730.5217895507812,
        -56,
        571.4479370117188
      ],
      "type": "VEC3"
    },
    {
      "name": "NORMAL",
      "bufferView": 0,
      "byteOffset": 557100,
      "componentType": 5126,
      "count": 2328,
      "max": [
        0.9999815225601196,
        0,
        0.9999812245368958
      ],
      "min": [
        -0.9999815225601196,
        0,
        -0.9999812245368958
      ],
      "type": "VEC3"
    },
    {
      "name": "_BATCHID",
      "bufferView": 0,
      "byteOffset": 557112,
      "componentType": 5126,
      "count": 2328,
      "max": [
        41
      ],
      "min": [
        0
      ],
      "type": "SCALAR"
    },
    {
      "bufferView": 1,
      "byteOffset": 39792,
      "componentType": 5123,
      "count": 2328,
      "type": "SCALAR"
    },
    {
      "name": "POSITION",
      "bufferView": 0,
      "byteOffset": 622272,
      "componentType": 5126,
      "count": 1248,
      "max": [
        255.5379180908203,
        34,
        1722.6171875
      ],
      "min": [
        -730.5217895507812,
        -30,
        571.4479370117188
      ],
      "type": "VEC3"
    },
    {
      "name": "NORMAL",
      "bufferView": 0,
      "byteOffset": 622284,
      "componentType": 5126,
      "count": 1248,
      "max": [
        0.9999815225601196,
        0,
        0.9999812245368958
      ],
      "min": [
        -0.9999815225601196,
        0,
        -0.9999812245368958
      ],
      "type": "VEC3"
    },
    {
      "name": "_BATCHID",
      "bufferView": 0,
      "byteOffset": 622296,
      "componentType": 5126,
      "count": 1248,
      "max": [
        41
      ],
      "min": [
        0
      ],
      "type": "SCALAR"
    },
    {
      "bufferView": 1,
      "byteOffset": 44448,
      "componentType": 5123,
      "count": 1248,
      "type": "SCALAR"
    },
    {
      "name": "POSITION",
      "bufferView": 0,
      "byteOffset": 166656,
      "componentType": 5126,
      "count": 5400,
      "max": [
        255.5379180908203,
        28,
        1722.6171875
      ],
      "min": [
        -730.5217895507812,
        -49,
        571.4479370117188
      ],
      "type": "VEC3"
    },
    {
      "name": "NORMAL",
      "bufferView": 0,
      "byteOffset": 166668,
      "componentType": 5126,
      "count": 5400,
      "max": [
        0.9999815225601196,
        0,
        0.9999812245368958
      ],
      "min": [
        -0.9999815225601196,
        0,
        -0.9999812245368958
      ],
      "type": "VEC3"
    },
    {
      "name": "_BATCHID",
      "bufferView": 0,
      "byteOffset": 166680,
      "componentType": 5126,
      "count": 5400,
      "max": [
        41
      ],
      "min": [
        0
      ],
      "type": "SCALAR"
    },
    {
      "bufferView": 1,
      "byteOffset": 11904,
      "componentType": 5123,
      "count": 5400,
      "type": "SCALAR"
    },
    {
      "name": "POSITION",
      "bufferView": 0,
      "componentType": 5126,
      "count": 5952,
      "max": [
        255.5379180908203,
        36,
        1722.6171875
      ],
      "min": [
        -730.5217895507812,
        -56,
        571.4479370117188
      ],
      "type": "VEC3"
    },
    {
      "name": "NORMAL",
      "bufferView": 0,
      "byteOffset": 12,
      "componentType": 5126,
      "count": 5952,
      "max": [
        0.9999815225601196,
        0,
        0.9999812841415405
      ],
      "min": [
        -0.9999815225601196,
        0,
        -0.9999812841415405
      ],
      "type": "VEC3"
    },
    {
      "name": "_BATCHID",
      "bufferView": 0,
      "byteOffset": 24,
      "componentType": 5126,
      "count": 5952,
      "max": [
        41
      ],
      "min": [
        0
      ],
      "type": "SCALAR"
    },
    {
      "bufferView": 1,
      "componentType": 5123,
      "count": 5952,
      "type": "SCALAR"
    },
    {
      "name": "POSITION",
      "bufferView": 0,
      "byteOffset": 457632,
      "componentType": 5126,
      "count": 3552,
      "max": [
        255.5379180908203,
        32,
        1722.6171875
      ],
      "min": [
        -730.5217895507812,
        -56,
        571.4479370117188
      ],
      "type": "VEC3"
    },
    {
      "name": "NORMAL",
      "bufferView": 0,
      "byteOffset": 457644,
      "componentType": 5126,
      "count": 3552,
      "max": [
        0.9999815225601196,
        0,
        0.9999812245368958
      ],
      "min": [
        -0.9999815225601196,
        0,
        -0.9999812245368958
      ],
      "type": "VEC3"
    },
    {
      "name": "_BATCHID",
      "bufferView": 0,
      "byteOffset": 457656,
      "componentType": 5126,
      "count": 3552,
      "max": [
        41
      ],
      "min": [
        0
      ],
      "type": "SCALAR"
    },
    {
      "bufferView": 1,
      "byteOffset": 32688,
      "componentType": 5123,
      "count": 3552,
      "type": "SCALAR"
    },
    {
      "name": "POSITION",
      "bufferView": 0,
      "byteOffset": 317856,
      "componentType": 5126,
      "count": 4992,
      "max": [
        255.5379180908203,
        21,
        1722.6171875
      ],
      "min": [
        -730.5217895507812,
        -56,
        571.4479370117188
      ],
      "type": "VEC3"
    },
    {
      "name": "NORMAL",
      "bufferView": 0,
      "byteOffset": 317868,
      "componentType": 5126,
      "count": 4992,
      "max": [
        0.9999815225601196,
        0,
        0.9999812245368958
      ],
      "min": [
        -0.9999815225601196,
        0,
        -0.9999812245368958
      ],
      "type": "VEC3"
    },
    {
      "name": "_BATCHID",
      "bufferView": 0,
      "byteOffset": 317880,
      "componentType": 5126,
      "count": 4992,
      "max": [
        41
      ],
      "min": [
        0
      ],
      "type": "SCALAR"
    },
    {
      "bufferView": 1,
      "byteOffset": 22704,
      "componentType": 5123,
      "count": 4992,
      "type": "SCALAR"
    },
    {
      "name": "POSITION",
      "bufferView": 0,
      "byteOffset": 699216,
      "componentType": 5126,
      "count": 12,
      "max": [
        86.32495880126953,
        -54,
        738.7877807617188
      ],
      "min": [
        -404.0519714355469,
        -54,
        572.4491577148438
      ],
      "type": "VEC3"
    },
    {
      "name": "NORMAL",
      "bufferView": 0,
      "byteOffset": 699228,
      "componentType": 5126,
      "count": 12,
      "max": [
        2.6948593099273206e-19,
        1,
        4.350524998859372e-17
      ],
      "min": [
        2.6771452371094975e-19,
        1,
        4.350524006242637e-17
      ],
      "type": "VEC3"
    },
    {
      "name": "_BATCHID",
      "bufferView": 0,
      "byteOffset": 699240,
      "componentType": 5126,
      "count": 12,
      "max": [
        21
      ],
      "min": [
        8
      ],
      "type": "SCALAR"
    },
    {
      "bufferView": 1,
      "byteOffset": 49944,
      "componentType": 5123,
      "count": 12,
      "type": "SCALAR"
    }
  ],
  "bufferViews": [
    {
      "buffer": 0,
      "byteLength": 699552,
      "byteStride": 28,
      "target": 34962,
      "byteOffset": 0
    },
    {
      "buffer": 0,
      "byteLength": 49968,
      "byteOffset": 699552,
      "target": 34963
    }
  ],
  "buffers": [
    {
      "uri": "4_data.bin",
      "byteLength": 749520
    }
  ],
  "materials": [
    {
      "alphaCutoff": 0,
      "alphaMode": "BLEND",
      "doubleSided": true,
      "pbrMetallicRoughness": {
        "baseColorFactor": [
          1,
          1,
          1,
          0
        ]
      }
    },
    {
      "alphaCutoff": 0,
      "alphaMode": "BLEND",
      "doubleSided": true,
      "pbrMetallicRoughness": {
        "baseColorFactor": [
          0.09411765,
          0.62352943,
          0.28235295,
          0.54901963
        ]
      }
    },
    {
      "alphaCutoff": 0,
      "alphaMode": "BLEND",
      "doubleSided": true,
      "pbrMetallicRoughness": {
        "baseColorFactor": [
          0.75686276,
          0.7647059,
          0.7764706,
          1
        ]
      }
    },
    {
      "alphaCutoff": 0,
      "alphaMode": "BLEND",
      "doubleSided": true,
      "pbrMetallicRoughness": {
        "baseColorFactor": [
          0.09411765,
          0.62352943,
          0.28235295,
          1
        ]
      }
    },
    {
      "alphaCutoff": 0,
      "alphaMode": "BLEND",
      "doubleSided": true,
      "pbrMetallicRoughness": {
        "baseColorFactor": [
          0.59607846,
          0.3137255,
          0.27058825,
          1
        ]
      }
    },
    {
      "alphaCutoff": 0,
      "alphaMode": "BLEND",
      "doubleSided": true,
      "pbrMetallicRoughness": {
        "baseColorFactor": [
          1,
          0.9411765,
          0,
          1
        ]
      }
    },
    {
      "alphaCutoff": 0,
      "alphaMode": "BLEND",
      "doubleSided": true,
      "pbrMetallicRoughness": {
        "baseColorFactor": [
          1,
          0.8627451,
          0,
          1
        ]
      }
    },
    {
      "alphaCutoff": 0,
      "alphaMode": "BLEND",
      "doubleSided": true,
      "pbrMetallicRoughness": {
        "baseColorFactor": [
          0.7137255,
          0.81960785,
          0.4117647,
          1
        ]
      }
    },
    {
      "alphaCutoff": 0,
      "alphaMode": "BLEND",
      "doubleSided": true,
      "pbrMetallicRoughness": {
        "baseColorFactor": [
          1,
          0.78431374,
          0,
          1
        ]
      }
    },
    {
      "alphaCutoff": 0,
      "alphaMode": "BLEND",
      "doubleSided": true,
      "pbrMetallicRoughness": {
        "baseColorFactor": [
          1,
          0.8627451,
          0,
          0.54901963
        ]
      }
    }
  ],
  "meshes": [
    {
      "name": "mesh",
      "primitives": [
        {
          "attributes": {
            "POSITION": 0,
            "NORMAL": 1,
            "_BATCHID": 2
          },
          "indices": 3,
          "material": 0
        },
        {
          "attributes": {
            "POSITION": 4,
            "NORMAL": 5,
            "_BATCHID": 6
          },
          "indices": 7,
          "material": 1
        },
        {
          "attributes": {
            "POSITION": 8,
            "NORMAL": 9,
            "_BATCHID": 10
          },
          "indices": 11,
          "material": 2
        },
        {
          "attributes": {
            "POSITION": 12,
            "NORMAL": 13,
            "_BATCHID": 14
          },
          "indices": 15,
          "material": 3
        },
        {
          "attributes": {
            "POSITION": 16,
            "NORMAL": 17,
            "_BATCHID": 18
          },
          "indices": 19,
          "material": 4
        },
        {
          "attributes": {
            "POSITION": 20,
            "NORMAL": 21,
            "_BATCHID": 22
          },
          "indices": 23,
          "material": 5
        },
        {
          "attributes": {
            "POSITION": 24,
            "NORMAL": 25,
            "_BATCHID": 26
          },
          "indices": 27,
          "material": 6
        },
        {
          "attributes": {
            "POSITION": 28,
            "NORMAL": 29,
            "_BATCHID": 30
          },
          "indices": 31,
          "material": 7
        },
        {
          "attributes": {
            "POSITION": 32,
            "NORMAL": 33,
            "_BATCHID": 34
          },
          "indices": 35,
          "material": 8
        },
        {
          "attributes": {
            "POSITION": 36,
            "NORMAL": 37,
            "_BATCHID": 38
          },
          "indices": 39,
          "material": 9
        }
      ]
    }
  ],
  "nodes": [
    {
      "mesh": 0
    }
  ],
  "scene": 0,
  "scenes": [
    {
      "nodes": [
        0
      ]
    }
  ]
}