{
  "asset": {
    "copyright": "",
    "generator": "SharpGLTF 1.0.0-alpha0015",
    "version": "2.0"
  },
  "accessors": [
    {
      "name": "POSITION",
      "bufferView": 0,
      "byteOffset": 776160,
      "componentType": 5126,
      "count": 300,
      "max": [
        1717.677978515625,
        -56,
        567.1469116210938
      ],
      "min": [
        242.90518188476562,
        -56,
        -419.3537292480469
      ],
      "type": "VEC3"
    },
    {
      "name": "NORMAL",
      "bufferView": 0,
      "byteOffset": 776172,
      "componentType": 5126,
      "count": 300,
      "max": [
        5.319394309114797e-19,
        1,
        8.727182287630519e-17
      ],
      "min": [
        -4.3083354788967174e-17,
        1,
        4.350084277029004e-17
      ],
      "type": "VEC3"
    },
    {
      "name": "_BATCHID",
      "bufferView": 0,
      "byteOffset": 776184,
      "componentType": 5126,
      "count": 300,
      "max": [
        49
      ],
      "min": [
        0
      ],
      "type": "SCALAR"
    },
    {
      "bufferView": 1,
      "byteOffset": 55440,
      "componentType": 5123,
      "count": 300,
      "type": "SCALAR"
    },
    {
      "name": "POSITION",
      "bufferView": 0,
      "byteOffset": 784560,
      "componentType": 5126,
      "count": 216,
      "max": [
        1717.677978515625,
        -54,
        567.1469116210938
      ],
      "min": [
        245.89691162109375,
        -54,
        -419.3537292480469
      ],
      "type": "VEC3"
    },
    {
      "name": "NORMAL",
      "bufferView": 0,
      "byteOffset": 784572,
      "componentType": 5126,
      "count": 216,
      "max": [
        5.319194234804136e-19,
        1,
        8.700871988450923e-17
      ],
      "min": [
        2.5889261662867757e-19,
        1,
        4.350084277029004e-17
      ],
      "type": "VEC3"
    },
    {
      "name": "_BATCHID",
      "bufferView": 0,
      "byteOffset": 784584,
      "componentType": 5126,
      "count": 216,
      "max": [
        49
      ],
      "min": [
        0
      ],
      "type": "SCALAR"
    },
    {
      "bufferView": 1,
      "byteOffset": 56040,
      "componentType": 5123,
      "count": 216,
      "type": "SCALAR"
    },
    {
      "name": "POSITION",
      "bufferView": 0,
      "byteOffset": 742560,
      "componentType": 5126,
      "count": 1200,
      "max": [
        1717.677978515625,
        49,
        567.1469116210938
      ],
      "min": [
        242.90518188476562,
        32,
        -419.3537292480469
      ],
      "type": "VEC3"
    },
    {
      "name": "NORMAL",
      "bufferView": 0,
      "byteOffset": 742572,
      "componentType": 5126,
      "count": 1200,
      "max": [
        0.9999825358390808,
        0,
        0.9999823570251465
      ],
      "min": [
        -0.9999825358390808,
        0,
        -0.9999823570251465
      ],
      "type": "VEC3"
    },
    {
      "name": "_BATCHID",
      "bufferView": 0,
      "byteOffset": 742584,
      "componentType": 5126,
      "count": 1200,
      "max": [
        49
      ],
      "min": [
        0
      ],
      "type": "SCALAR"
    },
    {
      "bufferView": 1,
      "byteOffset": 53040,
      "componentType": 5123,
      "count": 1200,
      "type": "SCALAR"
    },
    {
      "name": "POSITION",
      "bufferView": 0,
      "byteOffset": 560448,
      "componentType": 5126,
      "count": 2856,
      "max": [
        1717.677978515625,
        47,
        567.1469116210938
      ],
      "min": [
        242.90518188476562,
        -56,
        -419.3537292480469
      ],
      "type": "VEC3"
    },
    {
      "name": "NORMAL",
      "bufferView": 0,
      "byteOffset": 560460,
      "componentType": 5126,
      "count": 2856,
      "max": [
        0.9999825358390808,
        0,
        0.9999823570251465
      ],
      "min": [
        -0.9999825358390808,
        0,
        -0.9999823570251465
      ],
      "type": "VEC3"
    },
    {
      "name": "_BATCHID",
      "bufferView": 0,
      "byteOffset": 560472,
      "componentType": 5126,
      "count": 2856,
      "max": [
        49
      ],
      "min": [
        0
      ],
      "type": "SCALAR"
    },
    {
      "bufferView": 1,
      "byteOffset": 40032,
      "componentType": 5123,
      "count": 2856,
      "type": "SCALAR"
    },
    {
      "name": "POSITION",
      "bufferView": 0,
      "byteOffset": 697536,
      "componentType": 5126,
      "count": 1608,
      "max": [
        1717.677978515625,
        48,
        567.1469116210938
      ],
      "min": [
        242.90518188476562,
        24,
        -419.3537292480469
      ],
      "type": "VEC3"
    },
    {
      "name": "NORMAL",
      "bufferView": 0,
      "byteOffset": 697548,
      "componentType": 5126,
      "count": 1608,
      "max": [
        0.9999825358390808,
        0,
        0.9999823570251465
      ],
      "min": [
        -0.9999825358390808,
        0,
        -0.9999823570251465
      ],
      "type": "VEC3"
    },
    {
      "name": "_BATCHID",
      "bufferView": 0,
      "byteOffset": 697560,
      "componentType": 5126,
      "count": 1608,
      "max": [
        49
      ],
      "min": [
        0
      ],
      "type": "SCALAR"
    },
    {
      "bufferView": 1,
      "byteOffset": 49824,
      "componentType": 5123,
      "count": 1608,
      "type": "SCALAR"
    },
    {
      "name": "POSITION",
      "bufferView": 0,
      "componentType": 5126,
      "count": 6744,
      "max": [
        1717.677978515625,
        28,
        567.1469116210938
      ],
      "min": [
        242.90518188476562,
        -56,
        -419.3537292480469
      ],
      "type": "VEC3"
    },
    {
      "name": "NORMAL",
      "bufferView": 0,
      "byteOffset": 12,
      "componentType": 5126,
      "count": 6744,
      "max": [
        0.9999825358390808,
        0,
        0.9999823570251465
      ],
      "min": [
        -0.9999825358390808,
        0,
        -0.9999823570251465
      ],
      "type": "VEC3"
    },
    {
      "name": "_BATCHID",
      "bufferView": 0,
      "byteOffset": 24,
      "componentType": 5126,
      "count": 6744,
      "max": [
        49
      ],
      "min": [
        0
      ],
      "type": "SCALAR"
    },
    {
      "bufferView": 1,
      "componentType": 5123,
      "count": 6744,
      "type": "SCALAR"
    },
    {
      "name": "POSITION",
      "bufferView": 0,
      "byteOffset": 640416,
      "componentType": 5126,
      "count": 2040,
      "max": [
        1717.677978515625,
        27,
        567.1469116210938
      ],
      "min": [
        242.90518188476562,
        -56,
        -419.3537292480469
      ],
      "type": "VEC3"
    },
    {
      "name": "NORMAL",
      "bufferView": 0,
      "byteOffset": 640428,
      "componentType": 5126,
      "count": 2040,
      "max": [
        0.9999825358390808,
        0,
        0.9999822974205017
      ],
      "min": [
        -0.9999825358390808,
        0,
        -0.9999822974205017
      ],
      "type": "VEC3"
    },
    {
      "name": "_BATCHID",
      "bufferView": 0,
      "byteOffset": 640440,
      "componentType": 5126,
      "count": 2040,
      "max": [
        49
      ],
      "min": [
        0
      ],
      "type": "SCALAR"
    },
    {
      "bufferView": 1,
      "byteOffset": 45744,
      "componentType": 5123,
      "count": 2040,
      "type": "SCALAR"
    },
    {
      "name": "POSITION",
      "bufferView": 0,
      "byteOffset": 375648,
      "componentType": 5126,
      "count": 6600,
      "max": [
        1717.677978515625,
        21,
        567.1469116210938
      ],
      "min": [
        242.90518188476562,
        -56,
        -419.3537292480469
      ],
      "type": "VEC3"
    },
    {
      "name": "NORMAL",
      "bufferView": 0,
      "byteOffset": 375660,
      "componentType": 5126,
      "count": 6600,
      "max": [
        0.9999825954437256,
        0,
        0.9999823570251465
      ],
      "min": [
        -0.9999825954437256,
        0,
        -0.9999823570251465
      ],
      "type": "VEC3"
    },
    {
      "name": "_BATCHID",
      "bufferView": 0,
      "byteOffset": 375672,
      "componentType": 5126,
      "count": 6600,
      "max": [
        49
      ],
      "min": [
        0
      ],
      "type": "SCALAR"
    },
    {
      "bufferView": 1,
      "byteOffset": 26832,
      "componentType": 5123,
      "count": 6600,
      "type": "SCALAR"
    },
    {
      "name": "POSITION",
      "bufferView": 0,
      "byteOffset": 188832,
      "componentType": 5126,
      "count": 6672,
      "max": [
        1717.677978515625,
        37,
        567.1469116210938
      ],
      "min": [
        242.90518188476562,
        -56,
        -419.3537292480469
      ],
      "type": "VEC3"
    },
    {
      "name": "NORMAL",
      "bufferView": 0,
      "byteOffset": 188844,
      "componentType": 5126,
      "count": 6672,
      "max": [
        0.9999825358390808,
        0,
        0.9999823570251465
      ],
      "min": [
        -0.9999825358390808,
        0,
        -0.9999823570251465
      ],
      "type": "VEC3"
    },
    {
      "name": "_BATCHID",
      "bufferView": 0,
      "byteOffset": 188856,
      "componentType": 5126,
      "count": 6672,
      "max": [
        49
      ],
      "min": [
        0
      ],
      "type": "SCALAR"
    },
    {
      "bufferView": 1,
      "byteOffset": 13488,
      "componentType": 5123,
      "count": 6672,
      "type": "SCALAR"
    },
    {
      "name": "POSITION",
      "bufferView": 0,
      "byteOffset": 790608,
      "componentType": 5126,
      "count": 84,
      "max": [
        896.5809936523438,
        -54,
        406.47271728515625
      ],
      "min": [
        242.90518188476562,
        -54,
        -414.4621887207031
      ],
      "type": "VEC3"
    },
    {
      "name": "NORMAL",
      "bufferView": 0,
      "byteOffset": 790620,
      "componentType": 5126,
      "count": 84,
      "max": [
        5.319394309114797e-19,
        1,
        8.727182287630519e-17
      ],
      "min": [
        -4.3083354788967174e-17,
        1,
        4.350085269645739e-17
      ],
      "type": "VEC3"
    },
    {
      "name": "_BATCHID",
      "bufferView": 0,
      "byteOffset": 790632,
      "componentType": 5126,
      "count": 84,
      "max": [
        47
      ],
      "min": [
        30
      ],
      "type": "SCALAR"
    },
    {
      "bufferView": 1,
      "byteOffset": 56472,
      "componentType": 5123,
      "count": 84,
      "type": "SCALAR"
    }
  ],
  "bufferViews": [
    {
      "buffer": 0,
      "byteLength": 792960,
      "byteStride": 28,
      "target": 34962,
      "byteOffset": 0
    },
    {
      "buffer": 0,
      "byteLength": 56640,
      "byteOffset": 792960,
      "target": 34963
    }
  ],
  "buffers": [
    {
      "uri": "9_data.bin",
      "byteLength": 849600
    }
  ],
  "materials": [
    {
      "alphaCutoff": 0,
      "alphaMode": "BLEND",
      "doubleSided": true,
      "pbrMetallicRoughness": {
        "baseColorFactor": [
          1,
          1,
          1,
          0
        ]
      }
    },
    {
      "alphaCutoff": 0,
      "alphaMode": "BLEND",
      "doubleSided": true,
      "pbrMetallicRoughness": {
        "baseColorFactor": [
          0.09411765,
          0.62352943,
          0.28235295,
          0.54901963
        ]
      }
    },
    {
      "alphaCutoff": 0,
      "alphaMode": "BLEND",
      "doubleSided": true,
      "pbrMetallicRoughness": {
        "baseColorFactor": [
          0.75686276,
          0.7647059,
          0.7764706,
          1
        ]
      }
    },
    {
      "alphaCutoff": 0,
      "alphaMode": "BLEND",
      "doubleSided": true,
      "pbrMetallicRoughness": {
        "baseColorFactor": [
          0.09411765,
          0.62352943,
          0.28235295,
          1
        ]
      }
    },
    {
      "alphaCutoff": 0,
      "alphaMode": "BLEND",
      "doubleSided": true,
      "pbrMetallicRoughness": {
        "baseColorFactor": [
          0.59607846,
          0.3137255,
          0.27058825,
          1
        ]
      }
    },
    {
      "alphaCutoff": 0,
      "alphaMode": "BLEND",
      "doubleSided": true,
      "pbrMetallicRoughness": {
        "baseColorFactor": [
          1,
          0.9411765,
          0,
          1
        ]
      }
    },
    {
      "alphaCutoff": 0,
      "alphaMode": "BLEND",
      "doubleSided": true,
      "pbrMetallicRoughness": {
        "baseColorFactor": [
          0.7137255,
          0.81960785,
          0.4117647,
          1
        ]
      }
    },
    {
      "alphaCutoff": 0,
      "alphaMode": "BLEND",
      "doubleSided": true,
      "pbrMetallicRoughness": {
        "baseColorFactor": [
          1,
          0.78431374,
          0,
          1
        ]
      }
    },
    {
      "alphaCutoff": 0,
      "alphaMode": "BLEND",
      "doubleSided": true,
      "pbrMetallicRoughness": {
        "baseColorFactor": [
          1,
          0.8627451,
          0,
          1
        ]
      }
    },
    {
      "alphaCutoff": 0,
      "alphaMode": "BLEND",
      "doubleSided": true,
      "pbrMetallicRoughness": {
        "baseColorFactor": [
          0.59607846,
          0.3137255,
          0.27058825,
          0.54901963
        ]
      }
    }
  ],
  "meshes": [
    {
      "name": "mesh",
      "primitives": [
        {
          "attributes": {
            "POSITION": 0,
            "NORMAL": 1,
            "_BATCHID": 2
          },
          "indices": 3,
          "material": 0
        },
        {
          "attributes": {
            "POSITION": 4,
            "NORMAL": 5,
            "_BATCHID": 6
          },
          "indices": 7,
          "material": 1
        },
        {
          "attributes": {
            "POSITION": 8,
            "NORMAL": 9,
            "_BATCHID": 10
          },
          "indices": 11,
          "material": 2
        },
        {
          "attributes": {
            "POSITION": 12,
            "NORMAL": 13,
            "_BATCHID": 14
          },
          "indices": 15,
          "material": 3
        },
        {
          "attributes": {
            "POSITION": 16,
            "NORMAL": 17,
            "_BATCHID": 18
          },
          "indices": 19,
          "material": 4
        },
        {
          "attributes": {
            "POSITION": 20,
            "NORMAL": 21,
            "_BATCHID": 22
          },
          "indices": 23,
          "material": 5
        },
        {
          "attributes": {
            "POSITION": 24,
            "NORMAL": 25,
            "_BATCHID": 26
          },
          "indices": 27,
          "material": 6
        },
        {
          "attributes": {
            "POSITION": 28,
            "NORMAL": 29,
            "_BATCHID": 30
          },
          "indices": 31,
          "material": 7
        },
        {
          "attributes": {
            "POSITION": 32,
            "NORMAL": 33,
            "_BATCHID": 34
          },
          "indices": 35,
          "material": 8
        },
        {
          "attributes": {
            "POSITION": 36,
            "NORMAL": 37,
            "_BATCHID": 38
          },
          "indices": 39,
          "material": 9
        }
      ]
    }
  ],
  "nodes": [
    {
      "mesh": 0
    }
  ],
  "scene": 0,
  "scenes": [
    {
      "nodes": [
        0
      ]
    }
  ]
}